<?xml version="1.0" standalone="no"?>
<!DOCTYPE svg PUBLIC "-//W3C//DTD SVG 1.1//EN" "http://www.w3.org/Graphics/SVG/1.1/DTD/svg11.dtd" >
<svg xmlns="http://www.w3.org/2000/svg" xmlns:xlink="http://www.w3.org/1999/xlink" version="1.1">
<metadata>
Created by FontForge 20161003 at Sat Dec 15 14:16:39 2018
 By www-data
1.01  (c)1997  By Rick W. Mueller - Licensed to http://www.1001freefonts.com
</metadata>
<defs>
<font id="BaileyMF" horiz-adv-x="440" >
  <font-face 
    font-family="Bailey MF"
    font-weight="400"
    font-stretch="normal"
    units-per-em="1000"
    panose-1="0 0 4 0 0 0 0 0 0 0"
    ascent="800"
    descent="-200"
    x-height="252"
    cap-height="561"
    bbox="-399 -342 1088 864"
    underline-thickness="20"
    underline-position="-143"
    unicode-range="U+0020-F002"
  />
<missing-glyph horiz-adv-x="500" 
d="M63 0v645h375v-645h-375zM125 63h250v520h-250v-520z" />
    <glyph glyph-name=".notdef" horiz-adv-x="500" 
d="M63 0v645h375v-645h-375zM125 63h250v520h-250v-520z" />
    <glyph glyph-name=".null" horiz-adv-x="0" 
 />
    <glyph glyph-name="glyph2" horiz-adv-x="250" 
 />
    <glyph glyph-name="space" unicode=" " horiz-adv-x="250" 
 />
    <glyph glyph-name="exclam" unicode="!" horiz-adv-x="290" 
d="M242 587q-9 -65 -39 -153l-54 -150q8 -7 8 -15q0 -11 -15 -28t-27 -17q-11 0 -22 8q-6 12 -24 32l12 40q8 24 20 37q16 64 73 177q0 11 -8 32.5t-8 32.5q0 30 39 30q30 0 45 -26zM97 96q0 -11 -6.5 -32.5t-5.5 -33.5q-7 -15 -28 -15q-28 0 -39 16q-7 10 -9.5 37t-8.5 38
q0 26 59 26q38 0 38 -36z" />
    <glyph glyph-name="quotedbl" unicode="&#x22;" horiz-adv-x="275" 
d="M235 551q0 -34 -19 -65q-3 -4 -8.5 -15t-11.5 -45q-5 -29 -16 -45q0 -3 3.5 -9t3.5 -9q0 -6 -12 -14t-19 -8q-26 0 -26 52q0 28 19.5 82t18.5 84q2 1 11 15q7 11 21 11q35 0 35 -34zM134 545q0 -24 -33 -97q-36 -79 -59 -79q-10 0 -21 9t-11 19q0 15 29 66q32 56 38 78
t9 28q7 11 22 11q26 0 26 -35z" />
    <glyph glyph-name="numbersign" unicode="#" horiz-adv-x="525" 
d="M443 343q0 -24 -18 -24t-49 4q-36 4 -49 4l-13 -65q33 3 62 3q19 0 32 -13t13 -32q0 -27 -23 -27q-11 0 -36 2t-38 2l-25 -1q-8 -29 -15 -58q-10 -35 -10 -59q0 -9 1.5 -26.5t1.5 -26.5q0 -99 -66 -99q-10 0 -17 16q-6 12 -6 24q0 23 52 224q-30 -4 -91 -12
q-26 -85 -26 -117q0 -14 5 -40t5 -39q0 -21 -28 -21q-23 0 -35 29q-10 22 -10 49q0 25 34 124q-20 -7 -45 -7q-39 0 -39 25q0 23 21 36t45 13q10 0 22 -3l17 3q16 55 24 88l-6 -1q-25 -15 -63 -15q-46 0 -46 28q0 21 22 34q19 11 41 11q13 0 26 -4l41 4q15 70 15 108
q0 5 -1.5 16t-1.5 16q0 36 32 36q57 0 57 -43q0 -5 -8 -16q-28 -36 -42 -113q26 1 79 2q9 55 9 113q0 20 22 36t43 16q32 0 32 -23q0 -27 -42 -81l-10 -60q27 1 56 1q18 0 33.5 -11.5t15.5 -29.5zM274 327q-17 -1 -80 -5q-6 -25 -25 -82q29 6 88 15q10 41 17 72z" />
    <glyph glyph-name="dollar" unicode="$" horiz-adv-x="432" 
d="M405 325q0 -33 -21 -64l-80 -46q-47 -24 -87 -24q-12 0 -23 1q-18 -17 -29 -56q-14 -46 -24 -61q-7 3 -14.5 6.5t-9.5 9.5q7 40 24 118q-28 12 -84 40q-20 11 -57 36q-4 8 -4 16q0 14 11 24.5t25 8.5q8 2 15 2q10 0 27.5 -8.5t18.5 -17.5q1 -14 22 -28t36 -14q6 0 11 1
q4 13 27 51q19 31 19 54q0 8 -2 16q-11 12 -23 26.5t-12 25.5q0 25 55 36.5t55 42.5q0 9 -2 19q3 4 22 42q14 27 33 27q18 0 31.5 -10t13.5 -28q0 -16 -19.5 -38t-19.5 -34q0 -11 12 -18.5t12 -13.5v-4q-24 -9 -33 -14q-18 -10 -28 -22q3 -26 52.5 -49.5t49.5 -52.5z
M335 322q-6 13 -31 22q-32 11 -37 14q-16 -16 -27 -48q-14 -45 -18 -53q5 -5 12 -5q1 0 29 9q33 11 46 20q24 15 26 41z" />
    <glyph glyph-name="percent" unicode="%" horiz-adv-x="575" 
d="M267 415q0 -61 -80 -107q-8 -5 -26 -12.5t-58 -7.5q-95 0 -95 85q0 36 21 79q2 3 42 71q14 4 34 33q18 25 38 25q31 0 92 -64q12 -13 22 -47t10 -55zM532 116q0 -65 -79 -113q-8 -6 -26 -14t-58 -8q-94 0 -94 90q0 38 21 82q2 5 42 75q14 5 34 36q17 26 37 26
q30 0 91 -68q12 -14 22 -49.5t10 -56.5zM484 525q0 -16 -18 -27q-39 -25 -86 -97q-64 -99 -74 -111q-39 -47 -90 -125q-58 -87 -74 -131q-7 -27 -13 -55q-10 -41 -24 -41q-43 0 -43 50q0 51 74 160q9 15 145 200q87 117 106 171q6 19 11 37q9 21 29 21q19 0 38 -16.5
t19 -35.5zM213 427q0 44 -37 73q-20 -1 -54 -12q-18 -20 -42 -59q-19 -56 -19 -60q0 -28 47 -28q17 0 47 9.5t44 20.5t14 56zM478 123q0 51 -36 82q-20 -2 -54 -13q-18 -21 -41 -62q-19 -60 -19 -63q0 -30 46 -30q17 0 47 10t43.5 21.5t13.5 54.5z" />
    <glyph glyph-name="ampersand" unicode="&#x26;" horiz-adv-x="580" 
d="M581 111q0 -16 -72 -26q-84 -13 -97 -20q10 -10 10 -32q-12 -9 -24 -9q-18 0 -45 31.5t-45 31.5q-21 0 -39 -29q-11 -18 -17 -97q-5 -60 -38 -60q-36 1 -89 75q-38 53 -75 106q-8 10 -20 44q-9 28 -27 37q0 32 30 57q20 1 59 4q49 -65 146 -65q-32 61 -65 123
q-34 70 -34 134q0 61 87 133q84 70 146 70q56 0 88 -50q29 -44 29 -102q0 -54 -61 -160q-48 -77 -97 -153q13 -16 65 -22q58 -8 72 -18q12 4 24 4q11 0 32.5 -4.5t32.5 -4.5q12 0 23 5zM428 459q0 29 -17 58q-20 33 -46 33q-56 0 -108.5 -53.5t-52.5 -108.5t40 -127
q17 -31 38 -31q23 0 67.5 63t52.5 77q26 46 26 89zM211 83q0 11 -24 20q-20 7 -34 7t-14 -19q14 -4 20.5 -32t22.5 -28q7 0 18 22t11 30z" />
    <glyph glyph-name="quotesingle" unicode="'" horiz-adv-x="200" 
d="M135 551q0 -10 -8 -33q-5 -16 -11 -32q-29 -101 -29 -123q0 -6 -12 -14t-19 -8q-26 0 -26 52q0 32 16 83q18 59 21.5 84t32.5 25q35 0 35 -34z" />
    <glyph glyph-name="parenleft" unicode="(" 
d="M443 -208q-7 -1 -14 -1q-46 0 -131 34q-142 55 -220 166.5t-78 259.5q0 61 50 180.5t78 128.5q5 -3 12 -3q6 0 17 2t16 2q24 0 24 -21q0 -30 -39 -74q-49 -56 -58 -76q-44 -89 -44 -167q0 -83 40 -174q47 -108 117 -127q13 -4 25 -16q17 -17 23 -21q19 -12 54 -27
q41 -17 55 -25l44 -12q29 -9 29 -29z" />
    <glyph glyph-name="parenright" unicode=")" horiz-adv-x="400" 
d="M329 154q0 -45 -18 -107q-12 -42 -38 -79q-13 -17 -56 -67q-25 -28 -66 -65q-57 -52 -68 -61q-40 -33 -75 -51q-8 2 -8 7q0 3 10.5 15t9.5 22q10 13 34 31.5t39 41.5q6 9 51 55t60 64q31 37 45 73q26 68 26 104q0 77 -37.5 167.5t-91.5 136.5q-9 8 -25 14q-19 9 -24 12
q-11 7 -11 22q0 20 16.5 30.5t36.5 10.5q15 0 26 -6q77 -104 112 -174q52 -104 52 -196z" />
    <glyph glyph-name="asterisk" unicode="*" horiz-adv-x="360" 
d="M356 531q-36 -39 -102 -117q6 -1 26 -1q4 0 13 1.5t14 1.5q18 0 18 -10q0 -18 -23 -18q-37 0 -60 -14q9 -19 10 -54q0 -11 6 -35t6 -27q0 -20 -20 -20q-16 0 -24 33.5t-12 34.5l-8 -39q-2 -5 -9 -8q-24 0 -24 14q0 5 4 17t4 17q0 18 -6 18q-4 0 -13 -10q-13 -18 -27 -36
q-20 -24 -32 -24q-21 0 -21 9q0 -2 57 90q-12 5 -24 5q-11 0 -32 -3.5t-32 -3.5q-43 0 -43 37q0 12 25 19q20 6 34 6q13 0 40 -4t41 -3h17q6 11 6 22q0 16 -12 40q-15 29 -17 39q-16 20 -16 37q0 36 30 36l44 -82l-3 91q0 9 11.5 16.5t25.5 7.5q24 0 24 -33q0 -15 -8 -42.5
t-8 -41.5q0 -12 5 -27l47 47q30 28 57 28h9q0 -5 2 -14z" />
    <glyph glyph-name="plus" unicode="+" horiz-adv-x="420" 
d="M364 249q-19 -24 -61 -24q-73 -8 -101 -24q-21 -69 -21 -130q0 -14 1 -28q-17 -17 -32 -17q-4 0 -9 1q-16 16 -20 28q2 24 10 70.5t10 71.5q-18 9 -49 11q-40 2 -52 5q-12 8 -24 15q-16 10 -16 25q20 30 47 30q14 0 43.5 -11t44.5 -11q12 0 23 4q16 34 24 101
q-5 10 -3 28q3 31 3 29q23 15 36 12q29 -14 29 -41q0 -15 -10.5 -44t-11.5 -38.5t-1 -27.5v0q0 -17 -2 -23q24 -9 72 -7.5t70 -4.5z" />
    <glyph glyph-name="comma" unicode="," horiz-adv-x="190" 
d="M121 4q0 -34 -38 -95q-35 -56 -67 -82q-5 -2 -12 -2q-32 0 -32 22q0 12 41.5 60.5t41.5 82.5q0 23 -23.5 47.5t-23.5 38.5q0 8 18 14q14 5 25 5q20 0 45 -34.5t25 -56.5z" />
    <glyph glyph-name="hyphen" unicode="-" horiz-adv-x="245" 
d="M190 250q0 -32 -49 -33l-101 -1q-44 0 -44 27q0 25 98 25q96 0 96 -18z" />
    <glyph glyph-name="hyphen" unicode="&#x2010;" horiz-adv-x="245" 
d="M190 250q0 -32 -49 -33l-101 -1q-44 0 -44 27q0 25 98 25q96 0 96 -18z" />
    <glyph glyph-name="period" unicode="." horiz-adv-x="190" 
d="M111 8q-6 -4 -26 -29q-15 -20 -31 -20q-8 0 -16 5q-1 2 -19 21q-12 12 -12 25q0 7 -2.5 14t-2.5 11q0 12 16 17q11 27 39 27q27 0 37 -13q6 -7 8.5 -28t8.5 -30z" />
    <glyph glyph-name="slash" unicode="/" horiz-adv-x="376" 
d="M378 537q0 -16 -62 -121q-55 -93 -78 -125q-46 -63 -101 -154q-64 -106 -78 -152q-3 -14 -11 -40q-5 -14 -15 -14q-13 0 -23 12.5t-10 25.5q0 61 69 171q54 82 109 164q26 42 77 126q44 75 44 133q13 7 27 14.5t26 7.5q26 0 26 -48z" />
    <glyph glyph-name="zero" unicode="0" horiz-adv-x="475" 
d="M399 210q-2 -60 -37 -101q-26 -30 -87 -64q-14 -9 -42 -23q-27 -9 -91 -9q-142 0 -142 126q0 55 34 123q3 6 66 112q26 9 55 54q27 41 54 41q31 0 76 -39q33 -32 65 -64q16 -16 33 -72t16 -84zM342 228q0 34 -20 74q-22 45 -57 68q-15 -10 -51.5 -13t-53.5 -15
q-7 -17 -37.5 -52.5t-34.5 -52.5q-2 -5 -19 -53q-13 -32 -13 -52q0 -64 94 -64q32 0 83.5 16.5t76.5 34.5q32 24 32 109z" />
    <glyph glyph-name="one" unicode="1" horiz-adv-x="240" 
d="M202 441q1 -11 -7 -30q-10 -23 -11 -31q-16 -93 -61 -256q-7 -21 -19 -64q-2 -11 -7 -33q-5 -17 -28 -19h-31q-17 12 -19 35q-3 36 24 43q31 72 58 171q1 7 43 176q2 9 11.5 19t17.5 11t18.5 -7t10.5 -15z" />
    <glyph glyph-name="two" unicode="2" horiz-adv-x="450" 
d="M392 46q0 -33 -72 -33q-36 0 -97 19q-57 18 -95 39q-14 -6 -45.5 -32t-42.5 -26q-16 0 -28 17t-12 32q0 23 15 37q1 1 33 23q54 35 117 89q94 80 94 113q0 22 -54 22q-18 0 -48 -17t-43 -17t-23 10.5t-10 22.5q0 30 35 51q30 17 58 17q54 0 98 -18q57 -24 57 -71
q0 -27 -62 -98q-12 -14 -91 -97q14 -12 55 -35t48 -24q37 -6 113 -24z" />
    <glyph glyph-name="three" unicode="3" horiz-adv-x="410" 
d="M332 178q0 -30 -20 -61q-9 -13 -41 -50q-6 -9 -20 -25q-12 -12 -37 -22.5t-41 -10.5q-12 0 -24 4q-28 11 -61 41q-27 25 -54 51q-12 8 -34 26q-8 6 -8 17q0 13 10 24t22 11q14 -7 77 -60q47 -40 85 -40q25 0 48.5 26.5t23.5 52.5q0 12 -7 25q-6 9 -23 19q-25 15 -54 15
q-14 0 -14 27q0 24 6 28q26 12 53 24q34 17 34 41q0 12 -15 24t-28 12q-5 0 -35.5 -18.5t-57.5 -18.5q-21 0 -28 11q-5 8 -5 30q0 21 9 36q65 27 116 27q114 0 114 -108q0 -49 -28 -80q37 -19 37 -78z" />
    <glyph glyph-name="four" unicode="4" horiz-adv-x="400" 
d="M390 425q-4 -27 -24 -62q-27 -48 -32 -59q-45 -86 -89 -173q-53 -107 -48 -182q-9 -3 -17 -3q-45 0 -52 55q12 17 24 64q12 41 32 61q7 7 7 28q0 29 -39 29q-8 0 -26 2.5t-26 2.5q-23 -37 -51 -37q-49 0 -49 25q0 22 42 59q49 45 62 69q28 57 56 142q7 6 17 6
q29 0 29 -57q0 -30 -18 -70q-16 -32 -32 -65q9 -9 34.5 -12.5t34.5 -11.5q24 22 41 60q14 35 27 69q-3 9 -3 18q0 16 10 35l18 32q14 6 29 6q36 0 43 -31z" />
    <glyph glyph-name="five" unicode="5" horiz-adv-x="425" 
d="M413 415q0 -3 -4.5 -10.5t-5.5 -10.5q-16 -19 -72 -30q-50 -11 -80 -7q-4 -13 -36 -85q45 -6 76 -32q34 -29 34 -72q0 -53 -39.5 -97t-92.5 -44q-46 0 -100 28q-45 26 -90 53q1 24 51 24q21 0 55 -21t54 -21h45q13 0 26 26q11 23 11 38q0 31 -31 39q-30 3 -59 6
q-32 6 -32 34q0 25 26.5 60.5t26.5 55.5q0 14 -8 27q1 42 44 42q11 0 32 -2.5t31 -2.5q18 0 51.5 11t50.5 11q8 0 22 -6t14 -14z" />
    <glyph glyph-name="six" unicode="6" horiz-adv-x="360" 
d="M286 144q0 -30 -18 -52t-47 -29q-73 -17 -92 -17q-74 0 -122 45q-7 29 -7 76q0 78 57 168q5 9 108 147q51 1 60 -32q-9 -31 -50 -65q-47 -40 -59 -61q-11 -16 -23 -32q-14 -21 -14 -35l1 -5q20 5 40 5q40 0 100 -37q66 -40 66 -76zM203 140l-14 14q-9 13 -18 25
q-12 13 -26 13q-28 0 -43 -19t-29 -38q0 -12 16 -21t30 -9q17 0 42 12q36 16 40 18z" />
    <glyph glyph-name="seven" unicode="7" horiz-adv-x="300" 
d="M279 450q0 -82 -37 -89q-55 -54 -100 -149l-74 -166q-6 -10 -4 -24q3 -25 3 -22q0 -35 -26 -35q-15 0 -28 9t-13 23q0 48 57 159q73 142 80 164q2 6 17 30q12 19 12 30q0 19 -35 23h-49q-28 0 -50 9q-31 12 -31 36q0 22 29 22q12 0 45 -5.5t49 -5.5q54 0 94 31h4
q14 1 29 -16q18 -21 28 -24z" />
    <glyph glyph-name="eight" unicode="8" horiz-adv-x="360" 
d="M356 440q-8 -20 -30 -20q-25 0 -74.5 2t-73.5 2q-68 0 -101 -33q6 -14 29 -38t28 -43q15 6 51 43q31 33 53 33q16 0 33 -15q-2 -15 -4 -44q-28 -13 -69 -53q2 -25 25.5 -71t23.5 -70q0 -15 -12 -41q-33 -69 -114 -69q-98 0 -98 93q0 52 66 138q2 5 2 11q0 13 -45.5 63
t-45.5 85q0 20 23 37l38 26q19 1 38 1q130 0 257 -37zM176 129q0 6 -6 28q-8 14 -17 29t-23 15q-41 -35 -41 -76q0 -14 8 -28t21 -14q12 0 35 16.5t23 29.5z" />
    <glyph glyph-name="nine" unicode="9" horiz-adv-x="330" 
d="M316 434q0 -26 -69 -133q-101 -157 -114 -179t-27 -44q-16 -29 -16 -48q0 -5 4 -14.5t4 -14.5q0 -16 -42 -16q-29 0 -29 47t60 132q74 106 75 108q-51 0 -102 39q-60 45 -60 110q0 10 18.5 33.5t26.5 27.5q49 24 113 24q56 0 73 -12q27 -13 53 -27q32 -16 32 -33z
M232 416q0 11 -39 19q-32 7 -53 7q-20 0 -41 -7q-26 -9 -26 -22q0 -46 45 -72q33 -20 69 -20q3 8 25 49q20 36 20 46z" />
    <glyph glyph-name="colon" unicode=":" horiz-adv-x="190" 
d="M118 281q0 -9 -13 -28.5t-11 -33.5q-14 -38 -35 -38q-23 0 -23 57q0 22 11 42q12 24 32 24q11 0 25 -6.5t14 -16.5zM124 70q0 -12 -23 -40q-26 -31 -30 -44q-5 -5 -14 -5q-31 0 -31 38q0 31 20.5 55.5t50.5 24.5q27 0 27 -29z" />
    <glyph glyph-name="semicolon" unicode=";" horiz-adv-x="190" 
d="M129 246q0 -18 -8.5 -37t-8.5 -28.5t-15 -20t-25 -10.5q-23 0 -23 52q0 24 7 48q9 34 27 34q16 0 31 -11t15 -27zM124 38q0 -8 -10 -22q-13 -18 -14 -21q-38 -78 -54 -104q-44 -71 -82 -71q-21 0 -21 23q0 17 27 41q34 30 38 36q9 15 18 38q11 29 18 43q3 24 5 47
q4 33 30 33q15 0 30 -14t15 -29z" />
    <glyph glyph-name="less" unicode="&#x3c;" horiz-adv-x="475" 
d="M426 148q0 -22 -46 -22q-32 0 -92 18q-26 8 -66 31q-60 34 -64 36q-57 28 -104 35q-9 1 -28 3q-26 5 -26 44q0 22 11 40t31 21q23 23 90 39q63 15 84 42q26 6 29 6q12 0 19 -10q2 -7 2 -12q0 -17 -13 -34q-13 -13 -25 -27q-19 -8 -38 -15q-23 -9 -35 -21q-1 -7 -1 -13
q0 -21 29 -44q22 -18 45 -36q28 -31 95 -48q80 -19 103 -33z" />
    <glyph glyph-name="equal" unicode="=" horiz-adv-x="330" 
d="M253 300q0 -12 -2 -19q-24 -4 -52 -4q-30 0 -99 9q-64 9 -100 7v11q0 30 73 30q32 0 85 -6q64 -7 84 -8q11 -7 11 -20zM280 170q0 -23 -14 -23q-6 0 -11 7q-121 28 -208 28q-5 0 -11.5 7t-6.5 14q0 10 18 21q13 7 26 15q129 -14 206 -61q1 -4 1 -8z" />
    <glyph glyph-name="greater" unicode="&#x3e;" horiz-adv-x="400" 
d="M352 334q0 -13 -20 -36.5t-34 -33t-63 -31.5q-55 -25 -69 -32q-54 -29 -67 -38q-37 -26 -50 -55q-11 -7 -21 -7q-11 0 -19.5 10t-8.5 22q0 13 8 35q5 14 76 51q77 40 94 58q1 2 22 16q14 10 14 21q-24 18 -106 37q-72 16 -96 48q-2 2 -2 7q0 10 26 18q20 7 35 7
q26 0 64 -18q53 -25 60.5 -27.5t38.5 -7.5q17 -2 61 -2q57 0 57 -42z" />
    <glyph glyph-name="question" unicode="?" horiz-adv-x="400" 
d="M372 476q0 -22 -8 -46q-92 -75 -211 -142q-15 -9 -30 -44q-12 -29 -30 -29q-12 0 -28 8q-14 40 -14 54q0 13 5 23q26 20 122 73q78 43 113 85q2 7 2 13q0 16 -32 32q-28 13 -49 13q-39 0 -87.5 -25.5t-50.5 -25.5q-10 0 -24 10q-17 13 -22 15q3 5 12 48q6 29 33 33
q7 1 42 9q25 5 42 5q8 0 22.5 -4t22.5 -4q7 0 21.5 2t21.5 2q38 0 82.5 -34t44.5 -71zM125 46q0 -14 -19.5 -37.5t-20.5 -35.5q-4 -1 -12 -7t-14 -6q-10 0 -19 30q-7 25 -7 39q0 19 12.5 35.5t30.5 16.5q17 0 33 -9.5t16 -25.5z" />
    <glyph glyph-name="at" unicode="@" horiz-adv-x="500" 
d="M446 322q0 -27 -32 -77t-57 -50q-13 0 -31.5 17.5t-29.5 17.5t-20 -9q-9 -33 -54 -33q-53 0 -86 32t-33 85q0 37 35 75t72 38q69 0 114 -71q-3 -19 -3 -33q0 -38 23 -48q22 -1 31 26q12 35 22 43q-5 29 -23 85q-22 69 -35 69t-36.5 14t-33.5 14q-97 0 -152 -43
q-61 -49 -61 -143q0 -77 36 -161q40 -94 100 -129q18 -11 66 -11q21 0 62 5t62 5q24 0 24 -11q0 -38 -166 -38q-73 0 -109 38q-60 63 -95 153t-35 178q0 47 20 93q11 25 41 50q27 19 53 39q55 42 122 42q79 0 119 -22q90 -50 90 -240zM255 293q0 17 -11 34q-14 22 -41 22
t-27 -55q0 -47 34 -47q17 0 31 15t14 31z" />
    <glyph glyph-name="A" unicode="A" horiz-adv-x="456" 
d="M417 256q-21 -11 -25 -29q9 -44 9 -105q0 -141 -93 -290l-38 -54q-25 -35 -27 -56q-14 -27 -29 -27q-18 0 -18 31q0 38 31 88l56 78q12 14 29 49q39 140 39 212q0 35 -7 66q-6 1 -13 1q-13 0 -40.5 -3.5t-40.5 -3.5q-82 0 -132 -9q-45 -66 -45 -129q0 -43 12 -66
q11 -19 11 -17q0 -18 -45 -18q-22 0 -36.5 19.5t-14.5 43.5q0 21 11 53q17 48 18 53q10 40 80 210q59 142 76 177q15 32 18 37q13 17 31 17q47 0 74 -67q18 -57 35 -113q11 -24 29 -71q7 -22 25 -65q3 1 6 1q14 0 14 -13zM325 285q0 4 -9 39q-26 103 -85 142q-3 -8 -50 -92
q-31 -55 -31 -98q70 -9 102 -9q39 0 72 9q1 4 1 9z" />
    <glyph glyph-name="B" unicode="B" horiz-adv-x="530" 
d="M501 474q0 -33 -17 -55q-10 -12 -41 -33.5t-47 -40.5q97 -44 97 -97q0 -80 -116 -154q-82 -53 -202 -92q-18 -8 -54 -21q-43 -14 -78 -14q-27 0 -43 18q0 36 28 36q7 -3 15 -3q13 0 28 8t15 20q0 6 -3.5 16t-3.5 15q0 3 2 9.5t8 58.5q4 36 20 54q16 84 40 239l-16 -1
q-38 0 -48 21v4q0 6 -6 17t-6 17q0 7 4 10q58 63 250 63q77 0 112 -12q62 -21 62 -83zM436 474q0 32 -40 32q-13 0 -39.5 1.5t-39.5 1.5q-62 0 -99 -23q-17 -139 -69 -376q15 -14 45 -40q57 27 115 54q66 36 91 83q6 11 6 21q0 27 -38 52q-28 2 -81 -4q-18 8 -36 17
q-21 10 -21 32q0 18 40 40q49 11 109 53q57 40 57 56z" />
    <glyph glyph-name="C" unicode="C" horiz-adv-x="485" 
d="M483 113q0 7 -2 -11q-161 -100 -337 -100q-78 0 -128 97q-19 37 -19 130q0 26 3 39q20 93 41 143q36 84 92 111l21 9q14 11 28 21q18 13 32 13q17 0 37.5 -14.5t20.5 -30.5q0 -11 -9 -22q-10 -25 -46 -31q-42 -6 -53 -17q-3 -5 -10 -16t-43 -47q-21 -22 -39 -74
q-18 -55 -18 -106q0 -46 25 -90q28 -51 70 -51q22 0 122 16q23 2 70 10.5t140 25.5q2 -1 2 -5z" />
    <glyph glyph-name="D" unicode="D" horiz-adv-x="510" 
d="M539 391q0 -12 -14 -30q-18 -24 -43 -43.5t-50 -37.5q-10 -8 -147 -104q-89 -63 -140 -114q-16 -67 -72 -73q-11 -15 -22 -31q-12 -19 -12 -34q0 -6 1 -12q-4 -14 -20 -14q-14 0 -24 15q-8 12 -8 28q0 28 32 82q36 61 41 83q1 14 4 42q19 118 19 136q0 25 -2 36
q-11 -9 -25 -9q-28 0 -43 26q-13 21 -13 52q0 32 11 61q39 43 58 57q36 28 75 28q115 0 230 -29q164 -40 164 -115zM467 398q0 28 -87 52q-71 19 -113 19q-57 0 -98 -19q-1 -12 -12.5 -69.5t-11.5 -72.5q0 -23 -9 -67.5t-9 -67.5q0 -21 6 -38q12 5 115.5 79t115.5 86
q30 23 60 47q43 33 43 51zM93 435q-21 -45 -21 -62q0 -6 5.5 -15t7.5 -9q7 0 7 18q0 6 1 68z" />
    <glyph glyph-name="E" unicode="E" horiz-adv-x="550" 
d="M554 151q0 -7 -5 -8q-108 -35 -335 -122q-86 -32 -149 -64q-35 2 -49 39l-16 66q9 29 12 78q4 59 8 79q10 44 19 88q11 52 11 89q0 11 -4 33.5t-4 32.5q0 5 2 24q2 15 0 24q10 2 38 15q23 10 38 10t29 -9q34 18 103 29q73 11 104 24q24 0 24 -25q0 -5 -14 -9
q-9 -3 -19 -6q-67 -25 -198 -85q-3 -13 -22.5 -30t-21.5 -35q-1 -14 -10 -69q-6 -42 -6 -68q0 -2 3.5 -4t4.5 -4q57 16 174 36q4 -10 4 -17q0 -16 -26 -25q-32 -11 -39 -19q-31 -7 -72 -30q-35 -19 -69 -38q1 -7 1 -15q0 -9 -3 -26t-3 -26q0 -20 13 -34q16 -4 30 -4
q19 0 138 36l150 46q33 12 66 23q40 14 68 14q14 0 25 -14z" />
    <glyph glyph-name="F" unicode="F" horiz-adv-x="325" 
d="M348 326q0 -7 -5 -12q-41 -33 -121 -57q-71 -21 -133 -24q-27 -105 -27 -130q0 -28 14 -54t14 -28q0 -9 -14.5 -16t-24.5 -7q-23 0 -37.5 18.5t-14.5 41.5q0 72 33 185q-12 21 -12 66v9q32 19 32 105q0 13 -6.5 39t-6.5 40q0 22 20 35.5t44 13.5q20 0 21 -12l2 -3
q5 -2 14 -2q26 0 77 18t77 18q28 0 38 -19q-9 -20 -32 -31q-7 -4 -43 -15q-42 -18 -128 -45q-13 -26 -32 -131q6 -28 72 -28q33 0 94.5 15.5t80.5 15.5q4 0 4 -6z" />
    <glyph glyph-name="G" unicode="G" horiz-adv-x="525" 
d="M542 317q0 -12 -18 -18q-30 -10 -65 -31l-62 -36q8 -37 8 -58q0 -71 -67 -115q-59 -39 -135 -39q-94 0 -150 68q-54 64 -54 160q0 94 63 190q59 89 145 141q10 25 34 25q8 0 28 -3q17 -3 27 -2q12 -9 15 -28q4 -28 5 -32q0 -25 -25 -36q-21 -8 -43 -17q-12 9 -28 9
q-20 0 -37 -13q-56 -45 -89.5 -110t-33.5 -135q0 -90 56 -127q45 -31 135 -31q21 0 37 7q24 11 39 45q14 31 14 60t-32 29q-9 0 -26.5 -3t-26.5 -3q-13 0 -24 5q-20 8 -39.5 17.5t-19.5 32.5q0 63 104 63q22 0 46.5 -14.5t49.5 -29.5q38 0 83 17q75 29 80 30q6 -9 6 -18z
" />
    <glyph glyph-name="H" unicode="H" horiz-adv-x="420" 
d="M445 536q0 -37 -37 -74q-2 -44 -17 -102q-15 -49 -29 -99l-30 -120q-18 -71 -36 -118q-45 -120 -45 -236q0 -7 13 -20t13 -22q0 -20 -40 -20q-15 0 -25 17q-8 14 -8 29t-3 41t-3 40q0 43 40 162q46 136 53 177h-31q-21 -1 -32 -1q-59 0 -95 13q-31 -53 -60 -149
q1 -2 10 -18q6 -11 6 -19q0 -27 -63 -27q-9 0 -18 3q-13 25 -13 35q0 25 20 67q17 33 33 65q104 214 104 324q0 7 -2 20.5t-2 20.5q0 21 18 21q41 0 41 -47q0 -63 -20 -131q-18 -62 -18 -83q0 -16 9 -21q37 -23 119 -35q44 119 44 264q0 16 9 48q11 38 22 38q73 0 73 -43z
" />
    <glyph glyph-name="I" unicode="I" 
d="M461 540q-10 -18 -33 -27q-6 -2 -43 -10q-36 -13 -110 -30q-70 -234 -70 -347q0 -22 10 -30q116 35 147 35q13 0 22.5 -11.5t9.5 -24.5q0 -28 -60 -36q-2 -1 -72 -13q-47 -9 -72 -9q-3 0 -10 1h-10q-29 0 -81.5 -16t-73.5 -16q-15 0 -15 13q0 22 60 42q41 12 81 24
q10 98 21 196q14 128 40 187q-74 -12 -103 -12q-44 0 -44 13t64 34q43 15 81 23q20 35 50 35q13 0 22 -10t34 -10q19 0 55 9.5t55 9.5q37 0 45 -20z" />
    <glyph glyph-name="J" unicode="J" horiz-adv-x="540" 
d="M580 551q-10 -22 -53 -38q-51 -20 -64 -31q-43 -5 -97 -32q3 -44 -18 -161q-16 -83 -31 -166q-12 -69 -62 -94q-36 0 -106 -10t-105 -10q-45 0 -45 38q0 42 33 42q17 0 50 -5t50 -5q15 0 40 5.5t39.5 5.5t30.5 12q12 29 33 101q11 47 23 94q13 56 13 97q0 26 -17 40
q-41 -12 -83 -23q-49 -14 -75 -38q-5 -2 -9 -2q-15 0 -26 17q-10 14 -10 30q0 17 22 26q18 7 35 14q26 2 94 20q64 16 81 16q25 -1 64 10q45 13 64 14q28 14 129 33z" />
    <glyph glyph-name="K" unicode="K" horiz-adv-x="450" 
d="M453 446q0 -34 -18 -46q-31 -20 -36 -27q-25 -37 -77 -81q-72 -61 -85 -73q16 -35 74 -102q62 -72 92 -83v-7q1 -13 -30 -14q-34 -2 -67 24q-17 13 -54 55q-33 37 -55 51q-11 22 -43 22q-10 0 -22 -2q-28 -34 -44 -105q20 -8 20 -27q0 -18 -19 -38t-37 -20t-35 10t-17 26
q0 9 12 20.5t12 20.5q0 8 -5 16q135 262 170 477q16 16 44 16q20 -15 20 -36q0 -16 -13 -41t-15 -36q-2 -17 -7 -49q-3 -11 -45 -129l8 -4q16 14 59 39q40 23 58 42q22 23 46 66q35 65 39 71q22 -4 43 -9q27 -7 27 -27z" />
    <glyph glyph-name="L" unicode="L" horiz-adv-x="385" 
d="M364 122q-6 -26 -49 -40q-58 -22 -117 -45q-67 -24 -122 -24q-26 0 -52 4q-32 45 -32 73q0 17 8 28q5 6 16 19q20 28 41 86q25 68 50 135q31 85 31 126q0 6 1.5 17.5t1.5 16.5q30 30 47 30q5 0 29.5 -15t24.5 -20q0 -7 -8 -15q-27 -12 -32.5 -56t-23.5 -57
q-46 -116 -54 -141q-29 -81 -39 -146q11 -15 34 -15q13 0 37.5 5.5t37.5 5.5q26 0 76.5 15t76.5 15q8 0 17 -2z" />
    <glyph glyph-name="M" unicode="M" horiz-adv-x="640" 
d="M626 -56q0 -4 -6 -6.5t-11 -4.5q-112 31 -112 160q0 35 7 105t7 105q0 27 -3 50q-4 3 -8 3q-2 0 -21 -24.5t-20 -27.5q-7 -37 -61 -133q-15 -41 -29 -83q-17 -45 -55 -43q-10 1 -31 14t-26 23q0 19 20.5 48.5t20.5 52.5q0 4 3.5 26.5t3.5 34.5v30q1 20 1 30q0 24 -24 25
q-104 -83 -134 -190q-20 -24 -38 -98q-16 -64 -51 -88q-4 -1 -8 -1q-30 0 -36 25q-15 11 -15 21q0 9 19.5 24.5t19.5 27.5q20 46 46.5 143.5t46.5 143.5q-8 6 -8 17q0 9 4.5 29t4.5 30t-4 29t-4 29q0 15 10.5 25.5t25.5 10.5q13 0 25 -26t12 -42q0 -15 -7.5 -43.5
t-7.5 -43.5q0 -16 1 -18q4 -5 5 -5q7 0 14.5 10.5t13.5 20.5q54 74 88 74q24 0 37 -27q18 -37 24 -42q8 -60 8 -69q0 -16 -3 -28q4 -7 7 -7t9 7q8 43 60 119q56 83 89 83q49 -49 49 -73q0 -40 -15.5 -130t-15.5 -137q0 -119 71 -181z" />
    <glyph glyph-name="N" unicode="N" horiz-adv-x="450" 
d="M448 -59q-8 -13 -23 -13q-10 0 -28.5 6.5t-28.5 6.5q-58 36 -58 133q0 31 3.5 93.5t3.5 93.5q0 48 -22 80q-20 13 -36 13q-53 0 -146 -228q-7 -18 -12.5 -60t-12.5 -60q-12 -30 -40 -41q-48 10 -48 40q0 11 10 45q13 44 14 48l34 132q19 79 19 134q0 14 -7 40.5t-7 40.5
q0 16 12 29.5t28 13.5q18 0 32 -33q12 -27 12 -48q0 -66 -26 -111q3 -4 7 -4q3 0 8.5 4t8.5 4q11 33 52 92q47 67 71 67q37 0 56 -20q11 -13 21 -44.5t19 -41.5q7 -34 7 -76q0 -25 -4 -77t-4 -78q0 -102 41 -149q3 -4 26 -13q18 -7 18 -19z" />
    <glyph glyph-name="O" unicode="O" 
d="M396 168q0 -63 -96 -114q-84 -45 -153 -45q-147 0 -147 140q0 56 38 170q12 36 74 96q-1 2 -21.5 19t-20.5 30t15 24.5t29 11.5q11 0 19 -8q9 -18 55 -27q38 -6 34 -42q174 -124 174 -255zM339 189q0 26 -41 84q-37 51 -64 72q-10 10 -20 19q-13 10 -26 10q-55 0 -98 -84
q-38 -72 -38 -134q0 -44 39 -68q32 -20 77 -20q65 0 135 44q19 12 24 35q10 38 12 42z" />
    <glyph glyph-name="P" unicode="P" horiz-adv-x="530" 
d="M564 452q0 -26 -15 -59q-111 -82 -317 -150q-49 -16 -50 -16q-9 0 -9 3q3 4 1 10q27 17 167 89q111 56 156 96q7 7 7 17q0 30 -66 46q-47 11 -90 11q-60 0 -118 -5q-22 -2 -22 -17q0 -8 3.5 -22t3.5 -21q0 -5 -1 -9q-106 -325 -106 -381q0 -15 19 -22t19 -11t-5 -8.5
t-30 -29.5q-19 -18 -34 -18q-33 0 -33 55q0 66 50.5 210.5t50.5 213.5q0 12 -12 24q-4 1 -9 1q-15 0 -30 -16q-18 -18 -25 -22q-8 -36 -37 -36q-32 0 -32 36q0 27 31 53q11 10 54 36q33 2 109 23.5t93 21.5q277 0 277 -103z" />
    <glyph glyph-name="Q" unicode="Q" horiz-adv-x="497" 
d="M449 269q0 -137 -82 -187q2 -17 28 -46t25 -47v-4h-7q-33 -2 -68.5 32t-39.5 34q-7 0 -19.5 -6.5t-19.5 -6.5q-20 -2 -67 -2q-199 0 -199 148q0 83 79 214q86 145 167 145q13 0 39.5 -13.5t41.5 -13.5q8 0 16 2q78 -68 105 -226q1 -4 1 -23zM394 269q0 91 -51 169
q-6 8 -15 8q-7 0 -18 -8.5t-19 -8.5q-10 0 -26.5 16.5t-29.5 16.5q-10 0 -17 -4q-3 -2 -28.5 -24t-28.5 -25q-37 -40 -64 -98q-29 -63 -29 -113q0 -73 38 -91q18 -8 98 -8q38 0 54 15q-2 14 -36.5 43.5t-34.5 56.5q0 26 32 26q29 0 58 -41q35 -48 50 -56q34 0 53 48
q14 37 14 78z" />
    <glyph glyph-name="R" unicode="R" horiz-adv-x="550" 
d="M583 521q0 -67 -58 -132q-44 -48 -127 -101q-60 -37 -121 -74q27 -47 55 -94t64 -73l54 -36q39 -29 39 -44q0 -10 -11 -10q-10 0 -42 13q-107 43 -138 91q-17 25 -59 78q-46 56 -61 69q-71 -100 -93 -218q-5 -25 -36 -25q-38 0 -38 43q0 10 3 18q19 43 73 147
q49 93 71 148l22 56q14 37 14 58q-12 6 -24 6q-20 0 -50 -22q-34 -25 -47 -29q0 -28 -37 -28q-15 0 -27 18t-12 36q0 8 3 14q38 29 106 55q103 38 112 42q27 13 137 33t142 20q45 0 61 -7q25 -12 25 -52zM519 497q0 28 -42 28q-38 0 -118 -22q-84 -22 -104 -40
q0 -39 -21 -95q-29 -78 -32 -91q13 -4 26 -4q25 0 51 16l44 28q58 28 104.5 64t59.5 50q32 33 32 66z" />
    <glyph glyph-name="S" unicode="S" horiz-adv-x="455" 
d="M420 179q0 -48 -176 -124q-162 -70 -216 -70q-15 0 -28 20q2 22 28 30q23 5 45 11q36 14 108 46q44 18 88 37q70 31 70 40q0 15 -24 26q-94 46 -96 47q-62 33 -84.5 57t-22.5 68q0 30 9 42q28 37 204 92q6 2 11 2q16 0 27 -11t11 -27q0 -23 -22 -33q-13 -6 -48 -9.5
t-48 -9.5l-44 -20q-26 -15 -26 -34q0 -20 42 -52q9 -8 63 -43l76 -32q53 -23 53 -53z" />
    <glyph glyph-name="T" unicode="T" horiz-adv-x="500" 
d="M600 587q-140 -37 -230 -65q-33 -8 -93 -32q-4 -46 -20 -110q-15 -54 -29 -108q-43 -173 -43 -194q0 -25 15 -40q36 -9 36 -17q0 -16 -17.5 -27t-35.5 -11q-60 0 -60 57q0 36 8 66q11 34 31 102q18 85 58 254q2 9 2 15q0 15 -14 15q-28 0 -79 -20q-55 -23 -62 -42
q-15 -8 -25 -8q-16 0 -29 12.5t-13 27.5q0 22 14.5 37t35.5 15t58.5 14.5t59.5 14.5q28 0 113 12q71 13 143 25q84 13 143 13q4 0 11 1.5t11 1.5q9 0 11 -9z" />
    <glyph glyph-name="U" unicode="U" 
d="M448 486q-22 -20 -25 -70q-3 -56 -15 -75q-30 -48 -49.5 -115t-19.5 -124q0 -8 15 -42.5t15 -52.5q0 -11 -22 -11q-24 0 -44 40q-18 35 -18 62q0 16 7 46.5t7 46.5q-31 -31 -97 -85l-68 -50q-42 -30 -65 -30q-69 0 -69 76q0 35 51 160q35 84 70 169q6 13 16 39q4 22 7 45
q7 28 30 28q32 0 32 -45q0 -34 -58 -153q-78 -164 -78 -208q0 -19 15 -19q46 0 118 52q59 42 97 88q18 45 31 103q17 70 12 105l16 52q10 31 33 41q25 -3 38 -27z" />
    <glyph glyph-name="V" unicode="V" horiz-adv-x="400" 
d="M428 595q0 -13 -15 -33q-18 -24 -21 -31q-34 -83 -67 -166q-40 -96 -74 -162q-25 -46 -82 -102q-84 -82 -92 -92q-24 -4 -35 -4q-18 0 -34 8q-13 26 -13 42q0 11 8.5 23.5t8.5 28.5q0 7 -2.5 23t-1.5 25q6 75 16 225q4 87 4 78q0 12 -8 34.5t-8 33.5q13 23 41 23
q15 0 36 -6q10 -13 10 -28q0 -14 -9 -38.5t-9 -38.5t-3 -38q-4 -30 -5 -37q-6 -80 -6 -163q0 -41 2 -82q6 -5 13 -5q6 0 27 18q15 11 44 36q57 56 122 186q59 119 81 226q7 10 15.5 21t20.5 11q4 -2 24 -2q12 0 12 -14z" />
    <glyph glyph-name="W" unicode="W" horiz-adv-x="675" 
d="M721 510q0 -17 -34 -23q-38 -6 -45 -25q-11 -21 -28 -65q-19 -85 -37 -170q-26 -106 -66 -159q-53 -72 -147 -79q-35 13 -47 23q-18 13 -30 42q-5 11 -5 18q0 5 2 16.5t2 17.5q0 17 -15 25q-72 -82 -100 -108q-58 -58 -114 -90q-19 0 -41 8q-27 11 -27 26q0 10 19.5 78.5
t23.5 76.5q28 54 80 204q54 157 54 192q23 24 36 24q23 0 23 -39q0 -19 -9 -37.5t-18 -35.5q-2 -4 -34 -103q-28 -71 -55 -141q-34 -93 -34 -145q0 -8 2 -16q35 19 75 59q7 7 66 71q16 17 39 85q19 57 54 72q1 1 8 1q16 0 28.5 -10.5t12.5 -26.5q0 -3 -6 -45
q-11 -73 -11 -108q0 -38 4 -48q8 -20 40 -20q44 0 81 49q30 39 42 88q1 14 7 40q8 21 22 64q16 56 31 112q20 64 52 102q19 24 50 24q49 0 49 -24z" />
    <glyph glyph-name="X" unicode="X" horiz-adv-x="465" 
d="M468 498q0 -9 -5 -16q-10 -17 -38 -43.5t-39 -41.5q-45 -53 -129 -165q9 -71 67 -155q48 -68 115 -128q-10 -7 -22 -7q-36 0 -87 47q-32 29 -66 84q-28 47 -55 94q-75 -74 -83 -85q-44 -53 -47 -105q-24 -24 -48 -24q-10 0 -20 4q-11 10 -11 24q0 40 41 86l69 69
q9 12 26 35q17 17 34 35q20 22 20 43q0 19 -14 39q-7 121 -32 210q-1 5 -1 14q0 19 10.5 34t28.5 15q8 0 23 -7t24 -7q-1 -19 -7 -70q-6 -44 -6 -70q0 -51 17 -91q-1 -1 -1 -3q0 1 9 -5q34 34 118 145q18 26 56 69q10 9 40 9q13 -13 13 -33z" />
    <glyph glyph-name="Y" unicode="Y" horiz-adv-x="400" 
d="M410 592q0 -28 -35 -77q-47 -68 -53 -81q-23 -46 -132 -136q-13 -15 -55 -46q-1 -23 -26 -107q-25 -88 -29 -132q-2 -19 -19 -19q-31 0 -31 23q0 35 14 100q16 72 18 106l1 9q-41 16 -46 61q-2 19 -1 56q2 38 0 57q-2 20 6 62t5 64q-1 9 -7 23.5t-7 21.5q-2 14 15 24
q13 8 28 8q8 0 18.5 -7.5t10.5 -15.5q0 -13 -10 -87.5t-9 -90.5q2 -10 0 -31t-1 -32q4 -37 35 -37q5 0 16 7.5t14 9.5q124 46 195 213q8 26 26 78q5 10 23 12q36 4 36 -36z" />
    <glyph glyph-name="Z" unicode="Z" horiz-adv-x="660" 
d="M643 111q0 -1 -2 -2q-1 0 1 -3q-37 -22 -97 -22q-16 0 -48.5 2t-49.5 2q-30 0 -84 -3q-62 -4 -85 -4q-39 -1 -125 -13q-81 -11 -123 -11q-12 0 -19 18q-6 13 -11 27q6 26 36 44q26 12 52 25q7 4 29 20q46 35 191 118q123 70 185 129q-7 16 -8 18q-5 8 -16 10q-24 4 -88 4
q-66 0 -147 -8q-20 19 -20 28q0 37 57 37q244 0 283 -25q15 -10 15 -36q0 -7 -2.5 -25t-0.5 -28q-57 -51 -193.5 -123.5t-194.5 -126.5q-6 -6 -12 -20q91 -20 281 -20q27 0 81 -5t81 -5q18 0 33 1q1 -1 1 -3z" />
    <glyph glyph-name="bracketleft" unicode="[" horiz-adv-x="326" 
d="M323 597q-49 -22 -186 -49q-4 -6 -16 -16q3 -34 3 -71q0 -92 -35 -313q-7 -7 -7 -16q0 -4 1.5 -12t1.5 -11q0 -8 -4 -13q-17 -42 -12 -69q10 -8 34 -14t34 -14q7 -2 14 -2q18 0 55 12t56 12q11 0 21 -2q4 0 3 -5.5t1 -6.5q-118 -83 -194 -83q-24 0 -49 6q-36 15 -44 73
q20 93 41 187q21 108 21 189q0 42 -5 80q-12 16 -14 48q-2 39 -7 53q130 53 229 53q30 0 58 -4q3 -3 3 -8q0 -4 -3 -4z" />
    <glyph glyph-name="backslash" unicode="\" horiz-adv-x="412" 
d="M412 -27q-7 -11 -17 -11q-22 0 -39 23q-101 134 -198 319q-21 39 -74 111q-50 68 -84 103q-2 9 -2 17q0 29 21 29q38 0 114 -122q17 -27 78 -140q67 -121 94 -168q55 -94 107 -161z" />
    <glyph glyph-name="bracketright" unicode="]" horiz-adv-x="393" 
d="M380 570q-9 -6 -11 -27.5t-17 -25.5q-7 -32 -16 -131q-7 -84 -21 -132q-1 -32 -12 -109q-9 -71 -9 -108q0 -31 5 -57q5 -14 2 -38q-4 -37 -4 -41q0 -17 6 -30q-64 0 -146 -17q-71 -16 -141 -32q-11 3 -15 17t-1 28q15 1 41.5 16.5t43.5 15.5q38 12 76 25q45 15 69 40
q14 139 41 412q-6 37 8 72q-3 6 -5 42q-1 26 -19 31q-20 0 -57.5 -6.5t-54.5 -6.5q-39 0 -66 25v37q31 16 83 17q79 2 86 3q18 12 35 23q22 15 38 15q13 0 24 -10h25q8 -8 7 -24.5t5 -23.5z" />
    <glyph glyph-name="asciicircum" unicode="^" horiz-adv-x="360" 
d="M314 380q0 -12 -2.5 -15t-13.5 -3q-36 0 -74.5 62t-57.5 62q-10 0 -23 -18q-16 -23 -48 -52q-42 -39 -52 -50q-12 -3 -15 -3q-7 0 -12 6q8 32 47 83.5t48 90.5q7 36 64 52q12 -6 17 -23q6 -22 10 -28q24 -14 51 -60t49 -60q12 -38 12 -44z" />
    <glyph glyph-name="underscore" unicode="_" horiz-adv-x="360" 
d="M378 -48q0 -18 -14 -18q-46 0 -137 -1.5t-136 -1.5q-79 0 -99 3q-10 1 -10 15t10 16q66 13 189 13q95 0 183 -13q14 -2 14 -13z" />
    <glyph glyph-name="grave" unicode="`" horiz-adv-x="150" 
d="M145 393q-17 -7 -33 -7q-19 0 -31 11q-18 16 -40.5 57.5t-40.5 59.5q0 16 36 28q20 -18 50 -79q26 -53 59 -70z" />
    <glyph glyph-name="a" unicode="a" horiz-adv-x="386" 
d="M342 15q0 -9 -7 -16.5t-16 -7.5q-35 0 -90 61q-10 0 -27.5 -15t-26.5 -15q-100 0 -138 59q-32 49 -32 74q0 34 59 84q51 43 92 59q30 12 61 12q23 0 49.5 -22.5t26.5 -45.5l-1 -130q0 -11 5.5 -31t5.5 -30q0 -15 19.5 -23t19.5 -13zM214 175q0 21 -8 42q-11 27 -29 27
q-27 0 -65.5 -35.5t-38.5 -62.5q0 -25 22.5 -48t48.5 -23q36 0 55 34q15 27 15 66z" />
    <glyph glyph-name="b" unicode="b" horiz-adv-x="343" 
d="M292 211q0 -59 -25 -99l-62 -82q-12 -3 -52 -22q-32 -15 -51 -15q-8 0 -23 5.5t-23 5.5q-5 0 -14.5 -1t-14.5 -1q-26 0 -26 37q0 17 11 43q5 25 14 58q15 27 18 64q2 34 19 49q0 37 6.5 110.5t6.5 111.5q0 12 -1 36t-1 36q0 37 20 52l4 1q14 1 20.5 -11t12.5 -24
q0 8 -12 -286q23 14 46 29q30 18 49 18q36 0 58 -41q20 -35 20 -74zM221 197q0 48 -23 48q-28 0 -64 -36q-2 -10 -23 -63q-16 -42 -16 -62q0 -28 21 -28q32 0 70 55q35 51 35 86z" />
    <glyph glyph-name="c" unicode="c" horiz-adv-x="400" 
d="M382 52q-4 -39 -83 -51q-37 -6 -105 -6q-192 0 -192 132q0 56 53 121q55 69 109 69h30q15 -3 19 -19q2 -6 7 -23q-7 -33 -36 -41q-81 -20 -108 -77q-9 -20 -9 -28q0 -81 118 -81q23 0 70.5 5t71.5 5q29 0 55 -6z" />
    <glyph glyph-name="d" unicode="d" horiz-adv-x="360" 
d="M359 523q0 -83 -39 -204l-30 -90q-18 -57 -18 -90q0 -52 17 -86q7 -12 15 -25t8 -25q0 -21 -16 -21q-17 0 -45 51q-19 34 -37 69q-24 -20 -49 -41q-24 -16 -62 -16q-47 0 -75 29.5t-28 76.5q0 68 49 99q70 44 127 44q5 0 16 -7.5t18 -7.5t15 4q26 55 36 145q7 61 7 62
q6 45 13 56q11 15 37 15q41 0 41 -38zM200 196q-8 28 -37 28q-35 0 -70 -26t-35 -59q0 -16 11 -32t26 -16q29 0 64 38q32 35 41 67z" />
    <glyph glyph-name="e" unicode="e" horiz-adv-x="400" 
d="M383 71q-127 -85 -238 -85q-56 0 -99.5 39.5t-43.5 95.5q0 41 26 97.5t58 78.5q18 12 46 12q36 0 79.5 -31.5t43.5 -63.5q0 -34 -44 -57q-37 -20 -74 -20q-6 0 -19 1.5t-19 1.5q-22 0 -22 -25q0 -27 25.5 -50t53.5 -23q48 0 108 15q3 1 58 17q47 13 51 13q10 0 10 -16z
M188 221q0 8 -17 18.5t-26 10.5q-17 0 -34 -10t-17 -26q0 -10 9.5 -19t18.5 -9q66 0 66 35z" />
    <glyph glyph-name="f" unicode="f" horiz-adv-x="325" 
d="M346 547q0 -11 -33 -16q-75 -11 -103 -24q-56 -24 -56 -79q0 -33 20 -97q29 -93 30 -99q68 0 68 -30q0 -16 -23 -24q-6 -3 -50 -12q-19 -64 -37 -127q-32 -90 -69 -90q-22 0 -22 32q0 26 24 89q31 82 33 91q-8 -1 -89 -1q-36 0 -36 18q0 46 36 46h28q19 -1 29 -1
q22 0 41 11q-10 12 -26 102q-16 86 -16 112q0 31 4 44q13 37 93 65q67 24 118 24q10 0 20 -2q16 -21 16 -32z" />
    <glyph glyph-name="g" unicode="g" horiz-adv-x="410" 
d="M401 -72q0 -10 -11 -22q-19 -21 -266 -98q-225 -70 -285 -82q-11 -2 -37 -2q-116 0 -116 25q0 11 30 11q192 0 470 127q25 7 71 28q30 19 30 37t-21 57q-20 36 -37 53q-19 -15 -55 -37q-28 -13 -76 -13q-35 0 -62 21q-31 22 -31 56q0 5 2 10q52 153 136 153q22 0 54 -10
q46 -14 53 -15q13 -1 38 -6q10 -3 28 -20q-12 -38 -12 -76q0 -46 25 -89q11 -19 47 -62q25 -30 25 -46zM207 162q0 13 -4 23q-52 5 -71 -9q-17 -18 -34 -35q-22 -23 -22 -42q0 -32 27 -32q40 0 72 28.5t32 66.5z" />
    <glyph glyph-name="h" unicode="h" horiz-adv-x="335" 
d="M308 -29q-3 -10 -18 -10q-41 0 -70 29.5t-29 70.5q0 8 1 24.5t1 25.5q0 26 -10 48q-13 28 -36 28q-25 -67 -80 -144q-5 -1 -11 -1q-55 0 -55 41q0 18 26 99.5t36 90.5q9 50 25 151q5 41 10 81q9 56 21 75q3 5 15 5q27 0 27 -47q0 -56 -16 -139l-26 -126q7 -3 14 -3
q11 0 32.5 11.5t34.5 11.5q25 0 35 -13q6 -9 9 -36q7 -50 7 -111q0 -37 -3 -78q6 -8 27 -45q15 -27 33 -39z" />
    <glyph glyph-name="i" unicode="i" horiz-adv-x="165" 
d="M120 457q0 -35 -27 -35q-50 0 -50 38q0 39 37 39q15 0 27.5 -13.5t12.5 -28.5zM106 230q0 -29 -11.5 -85t-11.5 -84q0 -7 4 -20t4 -20q0 -30 -20 -42q-17 4 -35.5 9.5t-24.5 20.5q2 49 14 101q12 48 12 58q0 60 -13 80l20 26q14 18 25 18q37 0 37 -62z" />
    <glyph glyph-name="j" unicode="j" horiz-adv-x="175" 
d="M123 460q0 -37 -50 -37q-35 0 -35 34q0 46 35 46q17 0 33.5 -13t16.5 -30zM183 -149q-39 -60 -119 -73q-23 -4 -145 -4q-22 0 -66.5 -7t-67.5 -7q-46 0 -87.5 -11t-57.5 -11q-39 0 -39 23q0 42 61 42q16 0 49.5 6.5t50.5 6.5q46 0 137.5 11t137.5 11q23 0 41 10
q23 12 23 32q0 30 -26 92q-21 45 -41 90q-16 38 -27 86q-4 17 -4 18q0 122 53 122q50 0 50 -54q0 -1 -14.5 -33.5t-14.5 -60.5q0 -52 46 -144q52 -106 60 -145z" />
    <glyph glyph-name="k" unicode="k" horiz-adv-x="405" 
d="M375 16q0 -14 -39 -14q-53 0 -123.5 44.5t-90.5 44.5q-3 0 -15 1q-7 0 -12.5 -1t-10.5 -7q-3 -17 -3 -36q0 -8 -2.5 -24.5t-2.5 -24.5q0 -73 -26 -73q-47 0 -47 60q0 13 11.5 40t11.5 47q0 48 19 120q17 58 34 117q8 44 25 132q21 96 41 96t20 -79q0 -51 -17 -124
q-15 -62 -30 -123l8 -1q34 -1 68 32q10 10 50 62q27 35 57 35q12 0 22.5 -10.5t10.5 -22.5q0 -20 -148 -149q19 -51 80 -87q55 -28 109 -55z" />
    <glyph glyph-name="l" unicode="l" horiz-adv-x="160" 
d="M160 500q0 -14 -16.5 -25.5t-20.5 -26.5q-55 -190 -65 -338q-2 -24 11 -68t13 -66q0 -17 -19 -17q-15 0 -33 35q-9 17 -20 22q-5 25 -5 52q0 100 21 215q11 79 41 234q5 23 29 23q20 0 40 -9q24 -11 24 -31z" />
    <glyph glyph-name="m" unicode="m" horiz-adv-x="537" 
d="M519 -14q0 -9 -19 -20q-31 0 -63.5 26t-42.5 57q-4 15 -5 52q0 33 -8 52l-76 -52q-59 -38 -77 -38q-16 0 -30 16t-14 22q0 1 6 17t6 24q0 22 -14 22q-23 1 -49 -26q-21 -22 -41 -44q-11 -65 -64 -65q-15 0 -27 15t-12 31q0 13 13 24q13 36 34 109q1 16 7 46q4 14 20 14
q9 0 18.5 -6.5t9.5 -14.5q0 -6 -3 -16t-3 -16q0 -12 12 -20q15 5 56 37q34 26 58 26q12 0 35.5 -10.5t27.5 -42.5q4 -28 15 -28q9 0 24 11q19 29 25 36q16 20 34 28q21 0 42 -7q32 -11 41 -86q3 -26 3 -107q0 -19 30.5 -38.5t30.5 -27.5z" />
    <glyph glyph-name="n" unicode="n" horiz-adv-x="340" 
d="M331 -21q0 -11 -20 -25q-62 18 -82 31q-40 25 -40 73v17q1 11 1 17q0 30 -15 48q-38 -12 -41 -14q-21 -10 -31 -28q-8 -27 -17 -55q-11 -34 -35 -34q-5 0 -11 2q-7 -7 -15 -7q-7 0 -22 6q0 65 13 124q11 48 11 56q0 10 -6.5 27t-6.5 26q0 17 41 17q44 0 44 -22
q0 -6 -2 -17.5t-2 -17.5q0 -19 18 -28q22 0 47 29t47 29q6 0 17 -2.5t17 -2.5q24 -54 24 -72q0 -12 -9 -35.5t-9 -37.5q0 -54 21 -67q31 -15 61 -30q2 -4 2 -7z" />
    <glyph glyph-name="o" unicode="o" horiz-adv-x="395" 
d="M335 129q0 -57 -75 -97q-65 -35 -127 -35q-33 0 -64 11q-38 13 -49 37q-5 15 -17 44q5 12 8 61q2 32 19 50t18 27q-1 -9 -1 25q0 22 38 22q73 0 137 -30q68 -32 106 -90q7 -11 7 -25zM275 118q0 6 -2 12q-22 24 -43 48q-28 28 -55 28q-7 0 -16 -2q-2 -21 -22 -27
q-32 -10 -36 -13q-19 -15 -19 -57q0 -24 9 -49q32 -8 59 -8q31 0 74 19q51 23 51 49z" />
    <glyph glyph-name="p" unicode="p" horiz-adv-x="390" 
d="M343 196q0 -12 -4 -31q-5 -26 -6 -32q-6 -40 -61.5 -77.5t-98.5 -37.5q-21 0 -29 15q4 18 30 28q30 13 37 21q20 4 46.5 31.5t26.5 45.5q0 27 -18.5 51.5t-44.5 24.5q-8 0 -16 -2q-46 -16 -63 -63q-7 -19 -16 -91q-8 -59 -27 -86q0 -27 -15 -72q-16 -49 -18 -70
q-4 -47 -5 -52q-8 -32 -33 -32q-34 0 -34 50q0 29 26 160t38 163q15 43 21 97q83 74 136 74q27 0 77.5 -45t50.5 -70z" />
    <glyph glyph-name="q" unicode="q" horiz-adv-x="340" 
d="M337 -243q0 -3 -5 -8t-9 -5t-30 7q-83 25 -117 80q-14 88 -14 107q0 12 5 33.5t5 28.5q0 21 -14 27q-15 -1 -17 -1q-57 0 -103 52q-36 41 -36 120q0 18 66 57q63 37 86 37q21 0 56.5 -17t45.5 -34q29 -49 29 -87q0 -17 -13 -39q-20 -31 -22 -36q-30 -71 -30 -204
q0 -28 33 -54q27 -21 53 -42q31 1 31 -22zM189 164q0 24 -12 43.5t-35 19.5q-7 0 -14 -4q-3 -3 -39 -28q-25 -16 -24 -37v-10q7 -5 7 -12q0 -3 -1.5 -9.5t-1.5 -9.5q0 -12 26 -22q22 -9 37 -9q23 0 45 13q-1 6 -1 11q0 9 6.5 26.5t6.5 27.5z" />
    <glyph glyph-name="r" unicode="r" horiz-adv-x="330" 
d="M290 195q-11 -12 -35 -12q-7 0 -21.5 1t-21.5 1q-55 0 -55 -61q0 -10 1.5 -30t1.5 -29q0 -66 -52 -66q-23 12 -42 30q8 9 8 18q0 2 -10 37q-3 10 -40 114q-31 91 -31 101q0 14 22 14q28 0 48 -45q14 -35 27 -70q6 16 19 47q17 5 34 5q29 0 70 -15q62 -25 66 -26z" />
    <glyph glyph-name="s" unicode="s" horiz-adv-x="422" 
d="M368 71q0 -10 -26 -53q-80 -15 -185 -15q-43 0 -128 3q-10 6 -18.5 12.5t-8.5 20.5q0 27 30 27q16 0 45 -7t45 -7q49 0 64 2q38 6 56 27q-8 8 -76 53q-52 34 -52 67q0 22 24.5 51.5t45.5 29.5q14 0 37 -5q29 -6 37 -7q27 -14 27 -30q0 -3 -42 -14.5t-42 -31.5
q0 -25 83.5 -67t83.5 -56z" />
    <glyph glyph-name="t" unicode="t" horiz-adv-x="290" 
d="M294 -19q0 -11 -11 -20t-23 -9q-24 0 -64 20.5t-50 40.5q-36 71 -36 217q-3 1 -18 8q-10 6 -18 6q-51 0 -75 24q-11 11 -11 30q0 30 34 30q12 0 29 -16.5t30 -16.5q25 0 30 21q1 5 1 41q0 20 6 60t6 60q0 46 -26 77q0 30 38 45q34 0 45 -22q0 -16 -3 -50t-3 -52
q0 -5 1 -15t1 -16q0 -31 -6 -81q-8 -62 -10 -81q8 -13 35 -14q23 -1 23 -14q0 -10 -12 -10t-24 -6q-15 -8 -21 -10q-3 -13 -3 -26q0 -17 5 -49t5 -49q3 -5 21 -49q10 -26 33 -45q5 -4 40 -14q31 -9 31 -15z" />
    <glyph glyph-name="u" unicode="u" horiz-adv-x="366" 
d="M366 -21q0 -13 -31 -13q-18 0 -59 25q-36 23 -54 41q-41 -39 -106 -39q-37 0 -78 13q-28 23 -28 65q0 9 2 27t2 27q0 12 -2.5 34.5t-2.5 34.5q0 23 12.5 40.5t35.5 17.5q29 0 29 -26q0 -21 -14 -62t-14 -63q0 -18 19.5 -34.5t37.5 -16.5q13 0 31 8q15 6 29 12
q17 21 17 48q0 12 -4 36t-4 36q0 15 10 35.5t23 20.5q16 0 40.5 -21.5t24.5 -36.5q0 -9 -6 -25.5t-6 -25.5q0 -6 2.5 -19t2.5 -19q0 -56 90 -117z" />
    <glyph glyph-name="v" unicode="v" horiz-adv-x="374" 
d="M326 268q0 -6 -5 -12q-16 -82 -70 -153q-63 -84 -138 -84q-47 0 -82 99q-29 81 -29 139q0 15 9 27.5t23 12.5q19 0 26 -22q10 -56 20 -111q18 -81 57 -81q32 0 72 57q33 47 44 87q-8 6 -8 14q0 6 6 19t6 21q0 7 -4 14q9 9 23 9q9 0 22 -3q28 -21 28 -33z" />
    <glyph glyph-name="w" unicode="w" horiz-adv-x="510" 
d="M452 158q0 -54 -47 -99t-102 -45q-27 0 -57 17q-26 16 -51 32q-11 -5 -57 -40q-37 -28 -58 -28q-12 0 -31 6q-23 8 -31 9q-16 28 -16 58q0 32 25.5 92t25.5 93q0 10 -1 20q5 2 29 21q18 14 31 14q9 0 19 -6l-1 -7q0 -10 12 -25.5t12 -24.5q0 -3 -1 -8h-9q-13 1 -24 -11
t-21 -23q1 -8 1 -14q0 -19 -16.5 -54t-16.5 -55q11 -10 22 -10q13 0 31 13q26 19 28 20q2 12 16 25.5t17 26.5q28 6 37 6q30 0 49.5 -42t44.5 -45q25 9 49.5 18t29.5 41q6 37 6 50q0 14 -2 42.5t-2 42.5q0 50 21 77q19 -1 24 -14q-6 -19 -6 -41q0 -23 10 -66.5t10 -65.5z
" />
    <glyph glyph-name="x" unicode="x" horiz-adv-x="385" 
d="M342 32q0 -8 -11 -13q-71 30 -136 88h-18q-15 -14 -44 -43q-22 -24 -22 -56q0 -16 -20 -31q-16 -12 -31 -23q-46 0 -57 37q47 55 141 166q-8 25 -48 52q-37 24 -37 49q0 19 13.5 32t32.5 13q26 0 42.5 -43t42.5 -43q8 0 17 3q5 3 26 37q16 25 31 25q17 0 17 -14
q0 -19 -26 -53t-26 -56q0 -30 29 -57q10 -9 55 -38q29 -19 29 -32z" />
    <glyph glyph-name="y" unicode="y" horiz-adv-x="355" 
d="M371 -149q-18 -43 -62 -47q-125 -9 -195 -31q-81 -27 -174 -94q-28 -21 -41 -21l-4 1q-2 5 -2 12t2 12q57 52 137 102q100 63 152 63q20 0 47 6q39 9 47 10q6 6 6 14q0 13 -9 23q-46 48 -83 130q-12 -9 -23 -16.5t-32 -7.5q-52 0 -84 33t-32 85q0 11 2.5 34t2.5 34
q0 33 -17 54q7 19 54 37q12 -2 34 -11v-11q0 -7 -5 -21.5t-5 -22.5q0 -14 -1.5 -41t-1.5 -40q0 -61 38 -61q54 0 70 78q8 58 16 115q5 15 24 15t41 -13.5t22 -32.5q0 -3 -8 -27l-10 -30q-16 -63 -16 -143q0 -47 48 -92q53 -49 62 -95z" />
    <glyph glyph-name="z" unicode="z" horiz-adv-x="560" 
d="M535 31q-1 -13 -10 -17q-13 -4 -92 -4q-26 0 -79 1t-79 1q-29 0 -86.5 -3t-85.5 -3q-101 0 -101 43q0 19 91 75q103 63 114 76q-2 0 -66 14q-40 8 -67 8q-13 0 -25 -1q-10 2 -26 14q0 18 14.5 29.5t31.5 11.5q24 0 100.5 -9.5t114.5 -9.5q28 0 54 3q3 -5 17 -18.5
t14 -19.5q0 -21 -18 -31q-16 -6 -33 -12q-122 -49 -173 -99q44 -20 103 -28q52 -5 105 -10q7 -1 32 -5q19 -3 31 -3q13 0 37.5 3t37.5 3q25 0 44 -9z" />
    <glyph glyph-name="braceleft" unicode="{" horiz-adv-x="360" 
d="M333 292q0 -20 -19 -76q-19 -10 -62 -64q-35 -44 -70 -48q-76 -55 -115 -127q-1 -10 -1 -18q0 -64 50 -99q44 -32 110 -32q25 0 57 4q12 -4 12 -12q0 -19 -79 -19q-126 0 -177 76q-36 54 -36 97q0 39 56 100q76 82 82 92q-5 9 -5 19q0 16 16 45q14 22 58 23q38 1 38 19
q0 13 -11 34q-57 14 -96 42q-50 37 -50 86q0 57 53.5 125.5t108.5 68.5q42 0 42 -28q0 -14 -9 -28q-69 -42 -83 -54q-43 -38 -43 -85q0 -23 50 -63q123 0 123 -78z" />
    <glyph glyph-name="bar" unicode="|" horiz-adv-x="204" 
d="M162 528q-25 -39 -32 -117q-8 -96 -17 -126q-10 -33 -21 -95q-12 -71 -19 -99q-15 -57 -15 -82q0 -36 19 -59q13 -16 40 -31q33 -19 41 -26q-18 -16 -42 -16q-22 0 -53 15q-26 13 -51 26q-21 24 -21 59q0 23 9 54q1 6 29 125q17 75 19 125q17 40 21 109q5 92 8 110
q1 8 -3.5 29.5t-4.5 30.5q0 21 16 28q7 4 16 4q11 0 28 -7q21 -7 29 -9q12 -18 12 -30q0 -10 -8 -18z" />
    <glyph glyph-name="braceright" unicode="}" 
d="M397 111l-4 -16q-12 -67 -23 -91q-18 -37 -64 -69q-40 -28 -98 -52q-67 -29 -104 -29q-17 0 -41 5q-35 7 -41 7q-2 5 -2 7q0 4 12 11q17 10 18 10q186 23 263 139q5 19 5 33q0 50 -47 50q-20 0 -32 33.5t-36 32.5q-10 13 -84 61q-60 39 -60 71q0 6 -4 18.5t-4 19.5
q0 12 50.5 63t50.5 76q0 12 -4 25q-21 22 -88 26q-58 3 -58 21q0 59 46 59q30 0 67 -22q54 -32 62 -35q71 -29 71 -63q0 -15 -51 -83q-49 -64 -66 -77q9 -60 39 -60q15 0 43 8t43 8q73 0 73 -45q0 -12 -18 -28t-18 -31q0 -7 4 -16q5 -4 59 -27q41 -17 41 -40z" />
    <glyph glyph-name="asciitilde" unicode="~" horiz-adv-x="390" 
d="M330 264q0 -9 -8.5 -19.5t-49 -29t-55.5 -18.5q-27 0 -49 29.5t-34 29.5t-39 -26t-52 -26q-10 0 -22 6.5t-12 15.5q0 1 1 4q16 11 47 35q19 18 38.5 36t46.5 18q35 0 53.5 -28t28.5 -28q13 0 42 10.5t46 10.5q18 0 18 -20z" />
    <glyph glyph-name="Adieresis" unicode="&#xc4;" horiz-adv-x="456" 
d="M417 256q-21 -11 -25 -29q9 -44 9 -105q0 -141 -93 -290l-38 -54q-25 -35 -27 -56q-14 -27 -29 -27q-18 0 -18 31q0 38 31 88l56 78q12 14 29 49q39 140 39 212q0 35 -7 66q-6 1 -13 1q-13 0 -40.5 -3.5t-40.5 -3.5q-82 0 -132 -9q-45 -66 -45 -129q0 -43 12 -66
q11 -19 11 -17q0 -18 -45 -18q-22 0 -36.5 19.5t-14.5 43.5q0 21 11 53q17 48 18 53q10 40 80 210q59 142 76 177q15 32 18 37q13 17 31 17q47 0 74 -67q18 -57 35 -113q11 -24 29 -71q7 -22 25 -65q3 1 6 1q14 0 14 -13zM325 285q0 4 -9 39q-26 103 -85 142q-3 -8 -50 -92
q-31 -55 -31 -98q70 -9 102 -9q39 0 72 9q1 4 1 9zM355 670q0 -18 -33 -18q-20 0 -34.5 19t-14.5 39q0 28 33 28q11 0 21.5 -15t9.5 -26q0 -7 9 -14.5t9 -12.5zM186 715q0 -7 -1 -19.5t-1 -19.5q0 -25 -29 -25q-16 0 -16 10q0 3 1.5 9t1.5 9q0 7 -3.5 21t-3.5 22q0 24 31 24
q20 0 20 -31z" />
    <glyph glyph-name="Aring" unicode="&#xc5;" horiz-adv-x="456" 
d="M417 256q-21 -11 -25 -29q9 -44 9 -105q0 -141 -93 -290l-38 -54q-25 -35 -27 -56q-14 -27 -29 -27q-18 0 -18 31q0 38 31 88l56 78q12 14 29 49q39 140 39 212q0 35 -7 66q-6 1 -13 1q-13 0 -40.5 -3.5t-40.5 -3.5q-82 0 -132 -9q-45 -66 -45 -129q0 -43 12 -66
q11 -19 11 -17q0 -18 -45 -18q-22 0 -36.5 19.5t-14.5 43.5q0 21 11 53q17 48 18 53q10 40 80 210q59 142 76 177q15 32 18 37q13 17 31 17q47 0 74 -67q18 -57 35 -113q11 -24 29 -71q7 -22 25 -65q3 1 6 1q14 0 14 -13zM325 285q0 4 -9 39q-26 103 -85 142q-3 -8 -50 -92
q-31 -55 -31 -98q70 -9 102 -9q39 0 72 9q1 4 1 9zM381 680q0 -54 -103 -54q-53 0 -97 14q-62 19 -62 59q0 43 31 64l66 36q54 -14 101 -41q64 -37 64 -78zM301 700q0 22 -21 22q-10 0 -32 13t-37 13q-40 0 -40 -40q0 -14 32 -27q27 -12 44 -12q54 0 54 31z" />
    <glyph glyph-name="Ccedilla" unicode="&#xc7;" horiz-adv-x="600" 
d="M594 240q0 -26 -48 -61q-43 -28 -85 -57q-88 -68 -93 -72q-56 -36 -108 -42q-4 -5 -4 -11q0 -11 28 -62t28 -60q0 -20 -28 -28q-49 -17 -145 -41q-16 5 -61 4q-38 -1 -61 12q-8 23 -8 29q0 10 8 16q24 -7 52 -7q46 0 126 23q2 6 12 14t13 14q-32 63 -32 84q0 3 -1 5
q-33 19 -89 65q-39 47 -66.5 117.5t-27.5 130.5q0 24 5.5 69.5t5.5 68.5q0 54 43 106.5t96 52.5q21 0 53 -23.5t53 -24.5q10 -19 10 -31q0 -20 -35 -20q-20 0 -42 9t-26 9q-16 0 -42.5 -25.5t-34.5 -42.5q0 -22 -9.5 -64t-9.5 -64q0 -91 41 -173q50 -101 132 -101
q52 0 128 68q86 77 121 88q11 4 37 25q22 19 34 19q30 0 30 -19z" />
    <glyph glyph-name="Eacute" unicode="&#xc9;" horiz-adv-x="550" 
d="M554 151q0 -7 -5 -8q-108 -35 -335 -122q-86 -32 -149 -64q-35 2 -49 39l-16 66q9 29 12 78q4 59 8 79q10 44 19 88q11 52 11 89q0 11 -4 33.5t-4 32.5q0 5 2 24q2 15 0 24q10 2 38 15q23 10 38 10t29 -9q34 18 103 29q73 11 104 24q24 0 24 -25q0 -5 -14 -9
q-9 -3 -19 -6q-67 -25 -198 -85q-3 -13 -22.5 -30t-21.5 -35q-1 -14 -10 -69q-6 -42 -6 -68q0 -2 3.5 -4t4.5 -4q57 16 174 36q4 -10 4 -17q0 -16 -26 -25q-32 -11 -39 -19q-31 -7 -72 -30q-35 -19 -69 -38q1 -7 1 -15q0 -9 -3 -26t-3 -26q0 -20 13 -34q16 -4 30 -4
q19 0 138 36l150 46q33 12 66 23q40 14 68 14q14 0 25 -14zM362 779q0 6 -4 -12q-19 -9 -103 -68q-63 -43 -111 -53q-1 1 -8.5 3t-7.5 9q0 23 40 49q28 18 57 36q21 12 65 33l6 -1q9 -1 25 5.5t23 6.5q18 0 18 -8z" />
    <glyph glyph-name="Ntilde" unicode="&#xd1;" horiz-adv-x="450" 
d="M448 -59q-8 -13 -23 -13q-10 0 -28.5 6.5t-28.5 6.5q-58 36 -58 133q0 31 3.5 93.5t3.5 93.5q0 48 -22 80q-20 13 -36 13q-53 0 -146 -228q-7 -18 -12.5 -60t-12.5 -60q-12 -30 -40 -41q-48 10 -48 40q0 11 10 45q13 44 14 48l34 132q19 79 19 134q0 14 -7 40.5t-7 40.5
q0 16 12 29.5t28 13.5q18 0 32 -33q12 -27 12 -48q0 -66 -26 -111q3 -4 7 -4q3 0 8.5 4t8.5 4q11 33 52 92q47 67 71 67q37 0 56 -20q11 -13 21 -44.5t19 -41.5q7 -34 7 -76q0 -25 -4 -77t-4 -78q0 -102 41 -149q3 -4 26 -13q18 -7 18 -19zM375 627q0 -7 -7 -16t-42 -25
t-47 -16q-23 0 -42 25.5t-30 25.5q-9 0 -32.5 -22.5t-45.5 -22.5q-8 0 -18 5.5t-10 13.5v3q14 10 41 31q15 15 32 30.5t40 15.5q31 0 47 -24t24 -24q11 0 36 9t39 9q15 0 15 -18z" />
    <glyph glyph-name="Odieresis" unicode="&#xd6;" 
d="M396 168q0 -63 -96 -114q-84 -45 -153 -45q-147 0 -147 140q0 56 38 170q12 36 74 96q-1 2 -21.5 19t-20.5 30t15 24.5t29 11.5q11 0 19 -8q9 -18 55 -27q38 -6 34 -42q174 -124 174 -255zM339 189q0 26 -41 84q-37 51 -64 72q-10 10 -20 19q-13 10 -26 10q-55 0 -98 -84
q-38 -72 -38 -134q0 -44 39 -68q32 -20 77 -20q65 0 135 44q19 12 24 35q10 38 12 42zM305 592q0 -18 -33 -18q-20 0 -34.5 19t-14.5 39q0 28 33 28q11 0 21.5 -15t9.5 -26q0 -7 9 -14.5t9 -12.5zM136 637q0 -7 -1 -19.5t-1 -19.5q0 -25 -29 -25q-16 0 -16 10q0 3 1.5 9
t1.5 9q0 7 -3.5 21t-3.5 22q0 24 31 24q20 0 20 -31z" />
    <glyph glyph-name="Udieresis" unicode="&#xdc;" 
d="M448 486q-22 -20 -25 -70q-3 -56 -15 -75q-30 -48 -49.5 -115t-19.5 -124q0 -8 15 -42.5t15 -52.5q0 -11 -22 -11q-24 0 -44 40q-18 35 -18 62q0 16 7 46.5t7 46.5q-31 -31 -97 -85l-68 -50q-42 -30 -65 -30q-69 0 -69 76q0 35 51 160q35 84 70 169q6 13 16 39q4 22 7 45
q7 28 30 28q32 0 32 -45q0 -34 -58 -153q-78 -164 -78 -208q0 -19 15 -19q46 0 118 52q59 42 97 88q18 45 31 103q17 70 12 105l16 52q10 31 33 41q25 -3 38 -27zM415 670q0 -18 -33 -18q-20 0 -34.5 19t-14.5 39q0 28 33 28q11 0 21.5 -15t9.5 -26q0 -7 9 -14.5t9 -12.5z
M246 715q0 -7 -1 -19.5t-1 -19.5q0 -25 -29 -25q-16 0 -16 10q0 3 1.5 9t1.5 9q0 7 -3.5 21t-3.5 22q0 24 31 24q20 0 20 -31z" />
    <glyph glyph-name="aacute" unicode="&#xe1;" horiz-adv-x="386" 
d="M342 15q0 -9 -7 -16.5t-16 -7.5q-35 0 -90 61q-10 0 -27.5 -15t-26.5 -15q-100 0 -138 59q-32 49 -32 74q0 34 59 84q51 43 92 59q30 12 61 12q23 0 49.5 -22.5t26.5 -45.5l-1 -130q0 -11 5.5 -31t5.5 -30q0 -15 19.5 -23t19.5 -13zM214 175q0 21 -8 42q-11 27 -29 27
q-27 0 -65.5 -35.5t-38.5 -62.5q0 -25 22.5 -48t48.5 -23q36 0 55 34q15 27 15 66zM302 549q0 6 -4 -12q-19 -9 -103 -68q-63 -43 -111 -53q-1 1 -8.5 3t-7.5 9q0 23 40 49q28 18 57 36q21 12 65 33l6 -1q9 -1 25 5.5t23 6.5q18 0 18 -8z" />
    <glyph glyph-name="agrave" unicode="&#xe0;" horiz-adv-x="386" 
d="M342 15q0 -9 -7 -16.5t-16 -7.5q-35 0 -90 61q-10 0 -27.5 -15t-26.5 -15q-100 0 -138 59q-32 49 -32 74q0 34 59 84q51 43 92 59q30 12 61 12q23 0 49.5 -22.5t26.5 -45.5l-1 -130q0 -11 5.5 -31t5.5 -30q0 -15 19.5 -23t19.5 -13zM214 175q0 21 -8 42q-11 27 -29 27
q-27 0 -65.5 -35.5t-38.5 -62.5q0 -25 22.5 -48t48.5 -23q36 0 55 34q15 27 15 66zM255 393q-17 -7 -33 -7q-19 0 -31 11q-18 16 -40.5 57.5t-40.5 59.5q0 16 36 28q20 -18 50 -79q26 -53 59 -70z" />
    <glyph glyph-name="acircumflex" unicode="&#xe2;" horiz-adv-x="386" 
d="M342 15q0 -9 -7 -16.5t-16 -7.5q-35 0 -90 61q-10 0 -27.5 -15t-26.5 -15q-100 0 -138 59q-32 49 -32 74q0 34 59 84q51 43 92 59q30 12 61 12q23 0 49.5 -22.5t26.5 -45.5l-1 -130q0 -11 5.5 -31t5.5 -30q0 -15 19.5 -23t19.5 -13zM214 175q0 21 -8 42q-11 27 -29 27
q-27 0 -65.5 -35.5t-38.5 -62.5q0 -25 22.5 -48t48.5 -23q36 0 55 34q15 27 15 66zM320 356q0 -24 -24 -24q-27 0 -45.5 54.5t-34.5 54.5q-4 0 -14.5 -15t-12.5 -16q-25 -22 -62 -38q-5 2 -11 5.5t-6 5.5q0 6 11 16q7 8 15 15q39 50 65 127q11 13 27 13q12 0 29 -8
q23 -11 28 -13q7 -7 7 -14q0 -6 -5.5 -16t-5.5 -16q0 -92 39 -131z" />
    <glyph glyph-name="adieresis" unicode="&#xe4;" horiz-adv-x="386" 
d="M342 15q0 -9 -7 -16.5t-16 -7.5q-35 0 -90 61q-10 0 -27.5 -15t-26.5 -15q-100 0 -138 59q-32 49 -32 74q0 34 59 84q51 43 92 59q30 12 61 12q23 0 49.5 -22.5t26.5 -45.5l-1 -130q0 -11 5.5 -31t5.5 -30q0 -15 19.5 -23t19.5 -13zM214 175q0 21 -8 42q-11 27 -29 27
q-27 0 -65.5 -35.5t-38.5 -62.5q0 -25 22.5 -48t48.5 -23q36 0 55 34q15 27 15 66zM305 410q0 -18 -33 -18q-20 0 -34.5 19t-14.5 39q0 28 33 28q11 0 21.5 -15t9.5 -26q0 -7 9 -14.5t9 -12.5zM136 455q0 -7 -1 -19.5t-1 -19.5q0 -25 -29 -25q-16 0 -16 10q0 3 1.5 9t1.5 9
q0 7 -3.5 21t-3.5 22q0 24 31 24q20 0 20 -31z" />
    <glyph glyph-name="atilde" unicode="&#xe3;" horiz-adv-x="386" 
d="M342 15q0 -9 -7 -16.5t-16 -7.5q-35 0 -90 61q-10 0 -27.5 -15t-26.5 -15q-100 0 -138 59q-32 49 -32 74q0 34 59 84q51 43 92 59q30 12 61 12q23 0 49.5 -22.5t26.5 -45.5l-1 -130q0 -11 5.5 -31t5.5 -30q0 -15 19.5 -23t19.5 -13zM214 175q0 21 -8 42q-11 27 -29 27
q-27 0 -65.5 -35.5t-38.5 -62.5q0 -25 22.5 -48t48.5 -23q36 0 55 34q15 27 15 66zM302 433q0 -7 -7 -16t-42 -25t-47 -16q-23 0 -42 25.5t-30 25.5q-9 0 -32.5 -22.5t-45.5 -22.5q-8 0 -18 5.5t-10 13.5v3q14 10 41 31q15 15 32 30.5t40 15.5q31 0 47 -24t24 -24q11 0 36 9
t39 9q15 0 15 -18z" />
    <glyph glyph-name="aring" unicode="&#xe5;" horiz-adv-x="386" 
d="M342 15q0 -9 -7 -16.5t-16 -7.5q-35 0 -90 61q-10 0 -27.5 -15t-26.5 -15q-100 0 -138 59q-32 49 -32 74q0 34 59 84q51 43 92 59q30 12 61 12q23 0 49.5 -22.5t26.5 -45.5l-1 -130q0 -11 5.5 -31t5.5 -30q0 -15 19.5 -23t19.5 -13zM214 175q0 21 -8 42q-11 27 -29 27
q-27 0 -65.5 -35.5t-38.5 -62.5q0 -25 22.5 -48t48.5 -23q36 0 55 34q15 27 15 66zM311 440q0 -54 -103 -54q-53 0 -97 14q-62 19 -62 59q0 43 31 64l66 36q54 -14 101 -41q64 -37 64 -78zM231 460q0 22 -21 22q-10 0 -32 13t-37 13q-40 0 -40 -40q0 -14 32 -27
q27 -12 44 -12q54 0 54 31z" />
    <glyph glyph-name="ccedilla" unicode="&#xe7;" horiz-adv-x="410" 
d="M391 130q0 -22 -63 -33l-82 -12q-9 -3 -9 -17q0 -10 29 -45t29 -68q0 -49 -82 -62q-29 -5 -124 -5q2 0 -81 -9q-8 4 -8 20q0 52 82 52q12 0 33 -1t27 -1q40 0 60 15q-11 18 -21 51.5t-19 49.5q-50 12 -96.5 65.5t-46.5 103.5q0 43 28.5 81t69.5 57q99 0 99 -46
q0 -5 -4 -11.5t-4 -11.5q0 -4 2 -8q-6 -2 -13 -2q-8 0 -24.5 4t-25.5 4q-12 0 -22 -6q-22 -33 -22 -76q0 -18 18.5 -49.5t32.5 -31.5q61 0 148 14q4 0 27 6q17 4 26 4q13 0 24.5 -9.5t11.5 -22.5z" />
    <glyph glyph-name="eacute" unicode="&#xe9;" horiz-adv-x="400" 
d="M383 71q-127 -85 -238 -85q-56 0 -99.5 39.5t-43.5 95.5q0 41 26 97.5t58 78.5q18 12 46 12q36 0 79.5 -31.5t43.5 -63.5q0 -34 -44 -57q-37 -20 -74 -20q-6 0 -19 1.5t-19 1.5q-22 0 -22 -25q0 -27 25.5 -50t53.5 -23q48 0 108 15q3 1 58 17q47 13 51 13q10 0 10 -16z
M188 221q0 8 -17 18.5t-26 10.5q-17 0 -34 -10t-17 -26q0 -10 9.5 -19t18.5 -9q66 0 66 35zM262 549q0 6 -4 -12q-19 -9 -103 -68q-63 -43 -111 -53q-1 1 -8.5 3t-7.5 9q0 23 40 49q28 18 57 36q21 12 65 33l6 -1q9 -1 25 5.5t23 6.5q18 0 18 -8z" />
    <glyph glyph-name="egrave" unicode="&#xe8;" horiz-adv-x="400" 
d="M383 71q-127 -85 -238 -85q-56 0 -99.5 39.5t-43.5 95.5q0 41 26 97.5t58 78.5q18 12 46 12q36 0 79.5 -31.5t43.5 -63.5q0 -34 -44 -57q-37 -20 -74 -20q-6 0 -19 1.5t-19 1.5q-22 0 -22 -25q0 -27 25.5 -50t53.5 -23q48 0 108 15q3 1 58 17q47 13 51 13q10 0 10 -16z
M188 221q0 8 -17 18.5t-26 10.5q-17 0 -34 -10t-17 -26q0 -10 9.5 -19t18.5 -9q66 0 66 35zM205 393q-17 -7 -33 -7q-19 0 -31 11q-18 16 -40.5 57.5t-40.5 59.5q0 16 36 28q20 -18 50 -79q26 -53 59 -70z" />
    <glyph glyph-name="ecircumflex" unicode="&#xea;" horiz-adv-x="400" 
d="M383 71q-127 -85 -238 -85q-56 0 -99.5 39.5t-43.5 95.5q0 41 26 97.5t58 78.5q18 12 46 12q36 0 79.5 -31.5t43.5 -63.5q0 -34 -44 -57q-37 -20 -74 -20q-6 0 -19 1.5t-19 1.5q-22 0 -22 -25q0 -27 25.5 -50t53.5 -23q48 0 108 15q3 1 58 17q47 13 51 13q10 0 10 -16z
M188 221q0 8 -17 18.5t-26 10.5q-17 0 -34 -10t-17 -26q0 -10 9.5 -19t18.5 -9q66 0 66 35zM260 356q0 -24 -24 -24q-27 0 -45.5 54.5t-34.5 54.5q-4 0 -14.5 -15t-12.5 -16q-25 -22 -62 -38q-5 2 -11 5.5t-6 5.5q0 6 11 16q7 8 15 15q39 50 65 127q11 13 27 13q12 0 29 -8
q23 -11 28 -13q7 -7 7 -14q0 -6 -5.5 -16t-5.5 -16q0 -92 39 -131z" />
    <glyph glyph-name="edieresis" unicode="&#xeb;" horiz-adv-x="400" 
d="M383 71q-127 -85 -238 -85q-56 0 -99.5 39.5t-43.5 95.5q0 41 26 97.5t58 78.5q18 12 46 12q36 0 79.5 -31.5t43.5 -63.5q0 -34 -44 -57q-37 -20 -74 -20q-6 0 -19 1.5t-19 1.5q-22 0 -22 -25q0 -27 25.5 -50t53.5 -23q48 0 108 15q3 1 58 17q47 13 51 13q10 0 10 -16z
M188 221q0 8 -17 18.5t-26 10.5q-17 0 -34 -10t-17 -26q0 -10 9.5 -19t18.5 -9q66 0 66 35zM255 410q0 -18 -33 -18q-20 0 -34.5 19t-14.5 39q0 28 33 28q11 0 21.5 -15t9.5 -26q0 -7 9 -14.5t9 -12.5zM86 455q0 -7 -1 -19.5t-1 -19.5q0 -25 -29 -25q-16 0 -16 10q0 3 1.5 9
t1.5 9q0 7 -3.5 21t-3.5 22q0 24 31 24q20 0 20 -31z" />
    <glyph glyph-name="iacute" unicode="&#xed;" horiz-adv-x="165" 
d="M106 230q0 -29 -11.5 -85t-11.5 -84q0 -7 4 -20t4 -20q0 -30 -20 -42q-17 4 -35.5 9.5t-24.5 20.5q2 49 14 101q12 48 12 58q0 60 -13 80l20 26q14 18 25 18q37 0 37 -62zM182 549q0 6 -4 -12q-19 -9 -103 -68q-63 -43 -111 -53q-1 1 -8.5 3t-7.5 9q0 23 40 49
q28 18 57 36q21 12 65 33l6 -1q9 -1 25 5.5t23 6.5q18 0 18 -8z" />
    <glyph glyph-name="igrave" unicode="&#xec;" horiz-adv-x="165" 
d="M106 230q0 -29 -11.5 -85t-11.5 -84q0 -7 4 -20t4 -20q0 -30 -20 -42q-17 4 -35.5 9.5t-24.5 20.5q2 49 14 101q12 48 12 58q0 60 -13 80l20 26q14 18 25 18q37 0 37 -62zM145 393q-17 -7 -33 -7q-19 0 -31 11q-18 16 -40.5 57.5t-40.5 59.5q0 16 36 28q20 -18 50 -79
q26 -53 59 -70z" />
    <glyph glyph-name="icircumflex" unicode="&#xee;" horiz-adv-x="165" 
d="M101 230q0 -29 -11.5 -85t-11.5 -84q0 -7 4 -20t4 -20q0 -30 -20 -42q-17 4 -35.5 9.5t-24.5 20.5q2 49 14 101q12 48 12 58q0 60 -13 80l20 26q14 18 25 18q37 0 37 -62zM185 356q0 -24 -24 -24q-27 0 -45.5 54.5t-34.5 54.5q-4 0 -14.5 -15t-12.5 -16q-25 -22 -62 -38
q-5 2 -11 5.5t-6 5.5q0 6 11 16q7 8 15 15q39 50 65 127q11 13 27 13q12 0 29 -8q23 -11 28 -13q7 -7 7 -14q0 -6 -5.5 -16t-5.5 -16q0 -92 39 -131z" />
    <glyph glyph-name="idieresis" unicode="&#xef;" horiz-adv-x="165" 
d="M111 230q0 -29 -11.5 -85t-11.5 -84q0 -7 4 -20t4 -20q0 -30 -20 -42q-17 4 -35.5 9.5t-24.5 20.5q2 49 14 101q12 48 12 58q0 60 -13 80l20 26q14 18 25 18q37 0 37 -62zM200 410q0 -18 -33 -18q-20 0 -34.5 19t-14.5 39q0 28 33 28q11 0 21.5 -15t9.5 -26q0 -7 9 -14.5
t9 -12.5zM31 455q0 -7 -1 -19.5t-1 -19.5q0 -25 -29 -25q-16 0 -16 10q0 3 1.5 9t1.5 9q0 7 -3.5 21t-3.5 22q0 24 31 24q20 0 20 -31z" />
    <glyph glyph-name="ntilde" unicode="&#xf1;" horiz-adv-x="340" 
d="M331 -21q0 -11 -20 -25q-62 18 -82 31q-40 25 -40 73v17q1 11 1 17q0 30 -15 48q-38 -12 -41 -14q-21 -10 -31 -28q-8 -27 -17 -55q-11 -34 -35 -34q-5 0 -11 2q-7 -7 -15 -7q-7 0 -22 6q0 65 13 124q11 48 11 56q0 10 -6.5 27t-6.5 26q0 17 41 17q44 0 44 -22
q0 -6 -2 -17.5t-2 -17.5q0 -19 18 -28q22 0 47 29t47 29q6 0 17 -2.5t17 -2.5q24 -54 24 -72q0 -12 -9 -35.5t-9 -37.5q0 -54 21 -67q31 -15 61 -30q2 -4 2 -7zM302 433q0 -7 -7 -16t-42 -25t-47 -16q-23 0 -42 25.5t-30 25.5q-9 0 -32.5 -22.5t-45.5 -22.5q-8 0 -18 5.5
t-10 13.5v3q14 10 41 31q15 15 32 30.5t40 15.5q31 0 47 -24t24 -24q11 0 36 9t39 9q15 0 15 -18z" />
    <glyph glyph-name="oacute" unicode="&#xf3;" horiz-adv-x="395" 
d="M335 129q0 -57 -75 -97q-65 -35 -127 -35q-33 0 -64 11q-38 13 -49 37q-5 15 -17 44q5 12 8 61q2 32 19 50t18 27q-1 -9 -1 25q0 22 38 22q73 0 137 -30q68 -32 106 -90q7 -11 7 -25zM275 118q0 6 -2 12q-22 24 -43 48q-28 28 -55 28q-7 0 -16 -2q-2 -21 -22 -27
q-32 -10 -36 -13q-19 -15 -19 -57q0 -24 9 -49q32 -8 59 -8q31 0 74 19q51 23 51 49zM282 549q0 6 -4 -12q-19 -9 -103 -68q-63 -43 -111 -53q-1 1 -8.5 3t-7.5 9q0 23 40 49q28 18 57 36q21 12 65 33l6 -1q9 -1 25 5.5t23 6.5q18 0 18 -8z" />
    <glyph glyph-name="ograve" unicode="&#xf2;" horiz-adv-x="395" 
d="M335 129q0 -57 -75 -97q-65 -35 -127 -35q-33 0 -64 11q-38 13 -49 37q-5 15 -17 44q5 12 8 61q2 32 19 50t18 27q-1 -9 -1 25q0 22 38 22q73 0 137 -30q68 -32 106 -90q7 -11 7 -25zM275 118q0 6 -2 12q-22 24 -43 48q-28 28 -55 28q-7 0 -16 -2q-2 -21 -22 -27
q-32 -10 -36 -13q-19 -15 -19 -57q0 -24 9 -49q32 -8 59 -8q31 0 74 19q51 23 51 49zM225 393q-17 -7 -33 -7q-19 0 -31 11q-18 16 -40.5 57.5t-40.5 59.5q0 16 36 28q20 -18 50 -79q26 -53 59 -70z" />
    <glyph glyph-name="ocircumflex" unicode="&#xf4;" horiz-adv-x="395" 
d="M335 129q0 -57 -75 -97q-65 -35 -127 -35q-33 0 -64 11q-38 13 -49 37q-5 15 -17 44q5 12 8 61q2 32 19 50t18 27q-1 -9 -1 25q0 22 38 22q73 0 137 -30q68 -32 106 -90q7 -11 7 -25zM275 118q0 6 -2 12q-22 24 -43 48q-28 28 -55 28q-7 0 -16 -2q-2 -21 -22 -27
q-32 -10 -36 -13q-19 -15 -19 -57q0 -24 9 -49q32 -8 59 -8q31 0 74 19q51 23 51 49zM270 356q0 -24 -24 -24q-27 0 -45.5 54.5t-34.5 54.5q-4 0 -14.5 -15t-12.5 -16q-25 -22 -62 -38q-5 2 -11 5.5t-6 5.5q0 6 11 16q7 8 15 15q39 50 65 127q11 13 27 13q12 0 29 -8
q23 -11 28 -13q7 -7 7 -14q0 -6 -5.5 -16t-5.5 -16q0 -92 39 -131z" />
    <glyph glyph-name="odieresis" unicode="&#xf6;" horiz-adv-x="395" 
d="M335 129q0 -57 -75 -97q-65 -35 -127 -35q-33 0 -64 11q-38 13 -49 37q-5 15 -17 44q5 12 8 61q2 32 19 50t18 27q-1 -9 -1 25q0 22 38 22q73 0 137 -30q68 -32 106 -90q7 -11 7 -25zM275 118q0 6 -2 12q-22 24 -43 48q-28 28 -55 28q-7 0 -16 -2q-2 -21 -22 -27
q-32 -10 -36 -13q-19 -15 -19 -57q0 -24 9 -49q32 -8 59 -8q31 0 74 19q51 23 51 49zM275 410q0 -18 -33 -18q-20 0 -34.5 19t-14.5 39q0 28 33 28q11 0 21.5 -15t9.5 -26q0 -7 9 -14.5t9 -12.5zM106 455q0 -7 -1 -19.5t-1 -19.5q0 -25 -29 -25q-16 0 -16 10q0 3 1.5 9
t1.5 9q0 7 -3.5 21t-3.5 22q0 24 31 24q20 0 20 -31z" />
    <glyph glyph-name="otilde" unicode="&#xf5;" horiz-adv-x="395" 
d="M335 129q0 -57 -75 -97q-65 -35 -127 -35q-33 0 -64 11q-38 13 -49 37q-5 15 -17 44q5 12 8 61q2 32 19 50t18 27q-1 -9 -1 25q0 22 38 22q73 0 137 -30q68 -32 106 -90q7 -11 7 -25zM275 118q0 6 -2 12q-22 24 -43 48q-28 28 -55 28q-7 0 -16 -2q-2 -21 -22 -27
q-32 -10 -36 -13q-19 -15 -19 -57q0 -24 9 -49q32 -8 59 -8q31 0 74 19q51 23 51 49zM302 433q0 -7 -7 -16t-42 -25t-47 -16q-23 0 -42 25.5t-30 25.5q-9 0 -32.5 -22.5t-45.5 -22.5q-8 0 -18 5.5t-10 13.5v3q14 10 41 31q15 15 32 30.5t40 15.5q31 0 47 -24t24 -24
q11 0 36 9t39 9q15 0 15 -18z" />
    <glyph glyph-name="uacute" unicode="&#xfa;" horiz-adv-x="366" 
d="M366 -21q0 -13 -31 -13q-18 0 -59 25q-36 23 -54 41q-41 -39 -106 -39q-37 0 -78 13q-28 23 -28 65q0 9 2 27t2 27q0 12 -2.5 34.5t-2.5 34.5q0 23 12.5 40.5t35.5 17.5q29 0 29 -26q0 -21 -14 -62t-14 -63q0 -18 19.5 -34.5t37.5 -16.5q13 0 31 8q15 6 29 12
q17 21 17 48q0 12 -4 36t-4 36q0 15 10 35.5t23 20.5q16 0 40.5 -21.5t24.5 -36.5q0 -9 -6 -25.5t-6 -25.5q0 -6 2.5 -19t2.5 -19q0 -56 90 -117zM272 549q0 6 -4 -12q-19 -9 -103 -68q-63 -43 -111 -53q-1 1 -8.5 3t-7.5 9q0 23 40 49q28 18 57 36q21 12 65 33l6 -1
q9 -1 25 5.5t23 6.5q18 0 18 -8z" />
    <glyph glyph-name="ugrave" unicode="&#xf9;" horiz-adv-x="366" 
d="M366 -21q0 -13 -31 -13q-18 0 -59 25q-36 23 -54 41q-41 -39 -106 -39q-37 0 -78 13q-28 23 -28 65q0 9 2 27t2 27q0 12 -2.5 34.5t-2.5 34.5q0 23 12.5 40.5t35.5 17.5q29 0 29 -26q0 -21 -14 -62t-14 -63q0 -18 19.5 -34.5t37.5 -16.5q13 0 31 8q15 6 29 12
q17 21 17 48q0 12 -4 36t-4 36q0 15 10 35.5t23 20.5q16 0 40.5 -21.5t24.5 -36.5q0 -9 -6 -25.5t-6 -25.5q0 -6 2.5 -19t2.5 -19q0 -56 90 -117zM225 393q-17 -7 -33 -7q-19 0 -31 11q-18 16 -40.5 57.5t-40.5 59.5q0 16 36 28q20 -18 50 -79q26 -53 59 -70z" />
    <glyph glyph-name="ucircumflex" unicode="&#xfb;" horiz-adv-x="366" 
d="M366 -21q0 -13 -31 -13q-18 0 -59 25q-36 23 -54 41q-41 -39 -106 -39q-37 0 -78 13q-28 23 -28 65q0 9 2 27t2 27q0 12 -2.5 34.5t-2.5 34.5q0 23 12.5 40.5t35.5 17.5q29 0 29 -26q0 -21 -14 -62t-14 -63q0 -18 19.5 -34.5t37.5 -16.5q13 0 31 8q15 6 29 12
q17 21 17 48q0 12 -4 36t-4 36q0 15 10 35.5t23 20.5q16 0 40.5 -21.5t24.5 -36.5q0 -9 -6 -25.5t-6 -25.5q0 -6 2.5 -19t2.5 -19q0 -56 90 -117zM260 356q0 -24 -24 -24q-27 0 -45.5 54.5t-34.5 54.5q-4 0 -14.5 -15t-12.5 -16q-25 -22 -62 -38q-5 2 -11 5.5t-6 5.5
q0 6 11 16q7 8 15 15q39 50 65 127q11 13 27 13q12 0 29 -8q23 -11 28 -13q7 -7 7 -14q0 -6 -5.5 -16t-5.5 -16q0 -92 39 -131z" />
    <glyph glyph-name="udieresis" unicode="&#xfc;" horiz-adv-x="366" 
d="M366 -21q0 -13 -31 -13q-18 0 -59 25q-36 23 -54 41q-41 -39 -106 -39q-37 0 -78 13q-28 23 -28 65q0 9 2 27t2 27q0 12 -2.5 34.5t-2.5 34.5q0 23 12.5 40.5t35.5 17.5q29 0 29 -26q0 -21 -14 -62t-14 -63q0 -18 19.5 -34.5t37.5 -16.5q13 0 31 8q15 6 29 12
q17 21 17 48q0 12 -4 36t-4 36q0 15 10 35.5t23 20.5q16 0 40.5 -21.5t24.5 -36.5q0 -9 -6 -25.5t-6 -25.5q0 -6 2.5 -19t2.5 -19q0 -56 90 -117zM275 410q0 -18 -33 -18q-20 0 -34.5 19t-14.5 39q0 28 33 28q11 0 21.5 -15t9.5 -26q0 -7 9 -14.5t9 -12.5zM106 455
q0 -7 -1 -19.5t-1 -19.5q0 -25 -29 -25q-16 0 -16 10q0 3 1.5 9t1.5 9q0 7 -3.5 21t-3.5 22q0 24 31 24q20 0 20 -31z" />
    <glyph glyph-name="dagger" unicode="&#x2020;" horiz-adv-x="254" 
d="M210 296q0 -11 -33 -19q-41 -10 -52 -21q-13 -56 -13 -123q0 -24 5 -120q16 -15 16 -27q0 -11 -11 -20.5t-21 -9.5q-16 0 -26 22q-11 27 -18 31q-4 12 -4 26q0 13 4.5 40.5t4.5 41.5q0 11 -2 44q-1 30 0 47q1 25 5 44q-66 18 -66 47q0 5 8 13t13 8q6 0 16.5 -2t15.5 -2
q19 0 23 34v49q0 16 -7 47.5t-7 47.5q0 26 11 44q14 22 40 22q43 0 43 -44q0 -20 -18 -46q-12 -73 -12 -146q8 -7 19 -9q8 -1 21 0q17 2 21 2q24 0 24 -21z" />
    <glyph glyph-name="degree" unicode="&#xb0;" horiz-adv-x="257" 
d="M231 388q0 -42 -55 -74q-49 -29 -93 -29q-31 0 -57 20.5t-26 51.5q0 54 35 99q38 50 91 50q48 0 76.5 -34.5t28.5 -83.5zM166 397q0 15 -9 28t-22 13q-26 0 -50.5 -19.5t-24.5 -44.5q0 -21 17 -27q7 -3 35 -3q54 0 54 53z" />
    <glyph glyph-name="cent" unicode="&#xa2;" horiz-adv-x="330" 
d="M303 206q0 -15 -19 -18q-15 -3 -29 -6q-13 -7 -26 -7t-39 6t-39 6q-22 0 -31 -15q-5 -9 -7 -35q-1 -9 -5 -30t-4 -33q0 -7 1 -14q-4 -11 -20 -11q-11 0 -16 7q-7 29 -7 54q0 15 7 40t7 36q0 4 4 11.5t4 11.5q0 5 -3 9q-51 26 -76 85q-5 14 -5 16q0 64 41 89q25 15 101 28
q21 29 21 57q0 9 -2 26.5t-2 26.5q0 46 46 46q13 0 21 -18q6 -14 12 -29q-25 -40 -30 -112q31 -10 31 -30q0 -12 -19 -26q-16 -10 -29 -14q-11 -20 -18 -60q-7 -43 -15 -61q13 -13 33 -16h37q13 0 35 -8q11 -1 23 -1q17 -2 17 -11zM129 363q-6 -1 -17 -2q-15 -8 -29 -16
q-17 -12 -17 -25q0 -30 35 -41q15 15 28 84z" />
    <glyph glyph-name="sterling" unicode="&#xa3;" horiz-adv-x="450" 
d="M420 41q0 -6 -5 -14q-41 -10 -91 -10q-33 0 -98.5 6.5t-98.5 6.5q-25 0 -48 -3q-28 8 -41 14q-22 9 -35 23q-3 16 -3 26q0 42 53 42q18 0 51 -12.5t50 -12.5q18 0 30 15q3 4 17 31q11 22 11 26q0 9 -11 11q-11 -3 -21 -3q-48 0 -48 39q0 11 23 13q27 4 33 11
q-26 28 -53 56q-34 36 -34 66q0 14 7 28q-5 5 -5 19v10q1 8 1 11q96 58 194 81q46 -12 46 -71q0 -41 -56 -41q-11 0 -32.5 2t-32.5 2q-45 0 -45 -41q0 -9 2 -21q20 -24 64 -59q48 -38 66 -58l23 -1q14 0 21 -7q-5 -10 -21.5 -16.5t-30.5 -11.5q-19 -38 -65 -106
q17 -19 54 -22q49 -2 59 -6l40 -8q30 -5 30 -15z" />
    <glyph glyph-name="section" unicode="&#xa7;" horiz-adv-x="419" 
d="M412 63q7 -20 7 -39q0 -38 -30 -78q-5 -7 -58 -65q-107 -80 -262 -121q-15 -2 -35 8q-31 15 -34 16q7 12 29 18q29 7 36 11q107 25 234 117q4 18 23.5 41.5t24.5 35.5q-15 37 -20 68q-34 44 -85 44q-19 0 -40 -7q-1 14 -2 30t-18 18q-20 3 -47 26q-31 28 -46 35
q-23 23 -23 57q0 18 7 36q1 6 11.5 16.5t10.5 17.5q0 3 -2 6q-45 25 -69 97q3 27 6 55.5t23 45.5q34 37 97 37q23 0 56 -5q18 -6 45 -24q-6 -39 -69 -48q-51 7 -81 -29q-6 -13 -6 -24q0 -24 27 -42q24 -13 48 -27q47 -8 95 -16q55 -10 87 -32q38 -38 32 -93q-3 -25 -27 -49
l-42 -40q26 -12 52 -44q35 -43 45 -53zM311 269q-3 11 -36 37q-56 5 -59 5q-30 0 -58 -13q-14 -4 -14 -13q0 -6 10 -21.5t12 -22.5q11 -3 43 -28q27 -21 50 -16q17 15 33 30q19 19 19 42z" />
    <glyph glyph-name="bullet" unicode="&#x2022;" horiz-adv-x="330" 
d="M273 264q0 -51 -68 -83q-55 -25 -113 -25q-31 0 -55 18q-27 20 -27 50q0 71 24 104q29 38 97 38q52 0 93 -24q49 -29 49 -78z" />
    <glyph glyph-name="paragraph" unicode="&#xb6;" horiz-adv-x="400" 
d="M382 516q0 -16 -17 -35q-19 -22 -22 -32q-6 -26 -18 -79q-56 -229 -55 -338l1 -19q-9 -6 -19 -6q-14 0 -34 10q5 57 11 114q7 66 17 112q0 -1 0 40q0 17 8 25q6 50 25 150q-13 -6 -22 -39q-10 -43 -15 -50q-52 -96 -89 -263q2 -7 12 -21.5t10 -22.5q0 -6 -5 -13
q-27 -13 -42 -13q-6 0 -11 1q-11 30 -11 64q0 43 18 103q15 50 29 100l-106 48q-47 29 -47 111q0 9 4 19q17 41 65 64q10 5 88 33q6 2 10 2q11 0 26.5 -11.5t23.5 -11.5q9 0 17 9h4q12 1 31.5 -10.5t27.5 -11.5q10 0 18 9q5 3 10 3q8 0 20 -10t23 -10q3 0 8 1q6 -12 6 -22z
M191 438q0 19 -9 36q-8 1 -27 9t-30 8q-52 0 -52 -74q50 -51 84 -49l9 1q25 35 25 69z" />
    <glyph glyph-name="germandbls" unicode="&#xdf;" horiz-adv-x="475" 
d="M436 167q0 -50 -117 -121q-110 -67 -164 -67q-15 0 -27 22q1 23 26 31q22 7 44 13q159 79 159 111q0 16 -46 42q-64 35 -87 56q-46 43 -46 100q0 37 34.5 81t34.5 70q0 37 -44 37q-61 0 -91 -21q-35 -24 -35 -83q0 -36 23.5 -106.5t23.5 -106.5q0 -59 -45 -232
q-7 -26 -22 -48q-19 -30 -40 -30t-21 36q0 39 32 128t32 141q0 33 -20.5 119t-20.5 121q0 33 5 48q12 40 74 66q52 22 102 22q31 0 75 -24q50 -28 50 -56q0 -30 -20 -51t-39 -41q-21 -30 -21 -79q0 -40 65 -86q38 -18 76 -35q50 -25 50 -57z" />
    <glyph glyph-name="registered" unicode="&#xae;" horiz-adv-x="650" 
d="M595 266q0 -54 -52 -119q-45 -56 -99 -90q-93 -57 -198 -57q-79 0 -112 14q-40 18 -87 79q-31 40 -40 78q-5 26 -5 87q0 118 66 215q45 65 100 108q69 54 133 54q57 0 130 -69q164 -156 164 -300zM550 265q0 57 -23 103q-26 52 -71 113q-59 82 -90 82q-17 0 -49.5 -11.5
t-49.5 -11.5q-19 0 -36 17q-83 -28 -143 -123q-56 -90 -56 -181q0 -96 58.5 -155.5t155.5 -59.5q83 0 147 35q58 32 114 101q43 54 43 91zM429 447q0 -61 -47 -102q-11 -9 -98 -64q-2 -5 -10 -9.5t-10 -7.5q15 -27 29 -54t42 -45q18 -12 53 -39q3 -5 3 -9q0 -6 -7 -6
q-6 0 -25 8q-33 13 -46 21q-24 13 -37 33q-46 67 -72 88q-48 -67 -56 -130q-9 -15 -22 -15t-16 12.5t-6 24.5q108 199 110 244q-8 4 -15 4q-12 0 -31 -14t-27 -16q0 -9 -6.5 -13t-15.5 -4q-24 14 -24 33q0 4 2 8q23 17 64 33q33 12 67 25q18 8 73.5 19t76.5 11q26 0 36 -5
q15 -7 15 -31zM391 432q0 5 -1 9q-10 8 -24 8q-21 0 -62 -11.5t-54 -23.5q0 -23 -12 -56q-18 -47 -20 -55q8 -3 16 -3q15 0 29.5 9.5t27.5 17.5q100 50 100 105z" />
    <glyph glyph-name="copyright" unicode="&#xa9;" horiz-adv-x="650" 
d="M595 266q0 -54 -52 -119q-45 -56 -99 -90q-92 -57 -198 -57q-78 0 -112 15q-41 17 -87 78q-31 41 -40 78q-5 25 -5 87q0 117 66 215q44 65 100 108q69 54 133 54q57 0 130 -69q164 -155 164 -300zM550 265q0 56 -24 104.5t-70 111.5q-59 82 -90 82q-17 0 -49.5 -11.5
t-49.5 -11.5q-20 0 -36 17q-83 -29 -143 -123q-56 -90 -56 -181q0 -96 58.5 -155.5t155.5 -59.5q83 0 147 35q58 32 114 101q43 54 43 91zM434 195q0 3 -1 -8q-98 -65 -204 -65q-49 0 -79 63q-11 24 -11 83q0 15 1 25q26 136 88 163q4 2 21 15q12 10 22 10q11 0 24 -10
t13 -21q0 -4 -6 -15q-1 -4 -7 -11t-27.5 -10t-28.5 -15t-28 -34q-15 -16 -25 -53q-8 -32 -8 -58q0 -27 14 -54q16 -32 40 -32q11 0 73 10q14 1 42 6.5t85 16.5q2 -3 2 -6z" />
    <glyph glyph-name="trademark" unicode="&#x2122;" horiz-adv-x="680" 
d="M634 264q0 -1 -12 -9q-70 20 -70 99q0 21 4 63t4 63q0 15 -1 28l-3 1q-2 -1 -11.5 -14t-10.5 -15q-9 -30 -37 -81q-8 -23 -16 -47q-12 -29 -34 -29q-8 0 -21.5 8t-17.5 16q0 12 12 30t12 31q0 6 2.5 18t2.5 18v18.5v18.5q0 10 -11 12q-61 -50 -78 -113q-12 -14 -24 -59
q-9 -39 -31 -54h-6q-19 0 -24 16q-9 6 -9 14q0 7 11.5 16t11.5 15q12 28 28 86t28 85q-5 5 -5 11t3 18t3 18t-2.5 17.5t-2.5 17.5q0 24 24 24q9 0 17 -16.5t8 -27.5q0 -10 -5 -29t-5 -29q0 -1 2 -5q1 0 25 31.5t44 31.5q16 0 24 -16q12 -23 16 -27q4 -36 4 -42q0 -10 -2 -17
l2 -2q2 1 3 3q6 27 37 72q34 50 56 50q31 -30 31 -46q0 -27 -9.5 -80t-9.5 -80q0 -69 43 -108v-4zM363 624q-10 -2 -130 -39q-19 -5 -54 -19q-2 -17 -30 -130q-8 -33 -15 -60q-10 -47 -10 -56q0 -13 7 -21q23 -4 23 -13q0 -11 -11 -18t-23 -7q-39 0 -39 37q0 22 9 51
q7 25 15 50q11 51 35 152q1 6 1 9q0 7 -6 7q-16 0 -47 -12.5t-36 -24.5q-10 -6 -16 -6q-11 0 -19.5 8.5t-8.5 18.5q0 14 9.5 24t22.5 10t35.5 8.5t35.5 8.5q18 0 67 7q41 8 81 15q48 8 81 8q3 0 7 1t7 1q8 0 9 -10z" />
    <glyph glyph-name="acute" unicode="&#xb4;" horiz-adv-x="250" 
d="M242 549q0 6 -4 -12q-19 -9 -103 -68q-63 -43 -111 -53q-1 1 -8.5 3t-7.5 9q0 23 40 49q28 18 57 36q21 12 65 33l6 -1q9 -1 25 5.5t23 6.5q18 0 18 -8z" />
    <glyph glyph-name="dieresis" unicode="&#xa8;" horiz-adv-x="250" 
d="M235 410q0 -18 -33 -18q-20 0 -34.5 19t-14.5 39q0 28 33 28q11 0 21.5 -15t9.5 -26q0 -7 9 -14.5t9 -12.5zM66 455q0 -7 -1 -19.5t-1 -19.5q0 -25 -29 -25q-16 0 -16 10q0 3 1.5 9t1.5 9q0 7 -3.5 21t-3.5 22q0 24 31 24q20 0 20 -31z" />
    <glyph glyph-name="AE" unicode="&#xc6;" horiz-adv-x="600" 
d="M598 79q-2 -29 -35 -38q-40 -11 -49 -23q-56 -12 -111 -25q-65 -13 -113 -11h-19q-27 27 -27 68q0 12 4.5 34.5t4.5 36t4 40.5t4 41q0 12 -2 22q-14 7 -36 7q-13 0 -48 -4q-31 -4 -49 -3q-26 -48 -61 -169q-8 -8 -25 -8q-11 0 -27 4q-13 12 -13 28q0 15 21 73
q10 29 86 185q70 142 70 155q0 12 -3 23q11 6 19 29q7 19 28 19q12 0 35 2.5t35 2.5q42 0 61 -28q20 3 47 3q16 0 49 -1.5t49 -1.5q7 3 13 3q8 0 40 -24q-4 -18 -24 -18q-6 0 -17 1.5t-17 1.5q-10 0 -19 -5q-15 -8 -53.5 -17.5t-55.5 -22.5q-27 0 -32 -20q4 -18 4 -40
q0 -11 -1.5 -32.5t-1.5 -32.5q0 -16 3 -29q21 -5 47 -5q-9 0 102 9q7 -3 7 -13q0 -6 -3 -11q-24 -20 -77 -31q-59 -13 -80 -26q-2 -19 -11 -67q-9 -42 -9 -67q0 -17 4 -31q31 -14 69 -14q31 0 75 10l74 16q5 -2 11 -2q7 0 21 4t22 4q5 0 10 -2zM272 366q0 96 -9 101
q-12 -9 -55 -86.5t-43 -87.5q51 -6 66 -6q21 0 36 6q5 30 5 73z" />
    <glyph glyph-name="Oslash" unicode="&#xd8;" horiz-adv-x="594" 
d="M594 215q-41 -110 -170 -157q-19 -18 -58 -27q-48 -10 -63 -18q-22 -4 -129 -4q-16 8 -33 8q-6 -5 -39 -50q-23 -30 -49 -34q-2 4 -9 12q13 32 20 48q13 27 29 49q-7 15 -48 53q-34 32 -34 60q0 6 1 12q-6 16 -6 52v0q0 37 -6 53q44 89 69 133q78 78 88 87q52 41 110 47
q11 2 22 2q56 0 115 -59q63 31 82 31q15 0 27 -7q6 -9 12 -19t6 -18q0 -6 -2 -11q-7 -9 -28.5 -18.5t-27.5 -22.5q12 -22 48.5 -58.5t48.5 -58.5l15 -42q9 -26 9 -43zM521 211q0 40 -1 50q-5 32 -23 47q-7 6 -33 40q-21 26 -40 33q-44 -44 -103 -123q-76 -102 -95 -123
l-26 -32t-10 -33q63 -9 97 0q181 48 234 141zM372 438q-17 12 -36 12q-13 0 -38.5 -8.5t-37.5 -8.5q-19 0 -34 13q-119 -37 -161 -223q16 -99 64 -125l44 70q27 40 53 64q10 19 14 25q9 14 23 19q11 23 57 78q41 48 52 84z" />
    <glyph glyph-name="yen" unicode="&#xa5;" horiz-adv-x="420" 
d="M396 512q0 -45 -21 -76q-21 -74 -73 -105q-1 -5 -1 -10q0 -13 27 -16t27 -22q-17 -14 -58 -17q-47 -5 -60 -11q-28 -12 -28 -49q14 -11 66 -16q41 -4 47 -29q-10 -17 -35 -17q-7 0 -24 3t-27 3q-5 -1 -17.5 -3t-27.5 -2q-20 0 -22 -20q-9 -11 -13 -70q-3 -44 -35 -44
q-17 0 -17 17q0 7 1 21t1 21.5t4 22t4 22.5q0 11 -6 22q-8 3 -56 7q-35 2 -49 22q10 35 56 35q8 0 24.5 -1t24.5 -1q36 0 36 30q0 11 -4 25q-18 15 -67.5 19t-69.5 18q-3 9 -3 18q0 33 27 46l5 1q17 1 40.5 -15t38.5 -16q6 0 13 2q-3 9 -17 93q-9 56 -35 85q-2 4 -2 8
q0 7 17.5 16t26.5 9q57 0 57 -123q0 -41 46 -76q35 10 70.5 50t35.5 74q0 7 -1 14q-13 6 -13 19q0 32 17.5 59t36.5 27q33 0 33 -70z" />
    <glyph glyph-name="ordfeminine" unicode="&#xaa;" horiz-adv-x="365" 
d="M332 -12q0 -12 -25 -12q-33 0 -75 38q-14 -2 -49 -16q-30 -12 -49 -12q-39 0 -86 49.5t-47 89.5q0 27 125 43q27 3 55 6q39 7 39 27q0 18 -21 42t-39 24q-14 0 -40 -8.5t-40 -8.5q-37 0 -37 22q0 30 24.5 50t55.5 20q95 0 133 -36q33 -31 33 -100q0 -138 15 -183
q28 -20 28 -35zM224 101q0 25 -35 25q-81 0 -81 -40q0 -22 29 -22q21 0 50 9q37 12 37 28z" />
    <glyph glyph-name="ordmasculine" unicode="&#xba;" horiz-adv-x="475" 
d="M470 132q0 -15 -27 -31q-23 -11 -45 -21q-57 -30 -114 -59q-56 -23 -123 -23q-49 0 -72 9q-40 15 -66 72q-23 49 -23 97q0 81 40.5 121.5t109.5 40.5q49 0 89 -28q45 -31 45 -78q0 -27 -48 -48q-40 -18 -73 -18q-29 0 -54.5 14t-27.5 14q-12 0 -12 -18q0 -66 20 -93
q24 -31 89 -31q42 0 63 8q31 11 61 22q5 2 151 53q17 0 17 -3zM204 245q0 6 -19.5 19.5t-31.5 13.5t-27 -12q-17 -15 -17 -36q0 -4 22 -8q18 -3 25 -3q12 0 30 8.5t18 17.5z" />
    <glyph glyph-name="ae" unicode="&#xe6;" horiz-adv-x="575" 
d="M559 66q0 -22 -29 -37q-3 -1 -48 -18q-65 -24 -135 -24q-18 0 -45 9.5t-41 21.5q-32 -10 -63 -20q-40 -12 -64 -12q-40 0 -86.5 49.5t-46.5 89.5q0 27 109.5 40t109.5 36q0 18 -21.5 42t-38.5 24q-14 0 -40 -8.5t-40 -8.5q-37 0 -37 22q0 31 26 51q23 19 54 19
q89 0 127 -30q28 31 75 31q67 0 108 -17q18 -8 31.5 -37.5t13.5 -51.5q0 -11 -11 -28q-20 -34 -81 -45l-98 -12q-2 -4 -2 -9q0 -20 26 -47q22 -22 44 -33q19 -8 74 -8q27 0 59.5 10.5t43.5 10.5q26 0 26 -10zM403 241q0 15 -17.5 27.5t-31.5 12.5q-20 0 -38.5 -12t-18.5 -27
q0 -11 17 -18q13 -5 27 -5q13 0 35 6q27 7 27 16zM224 101q0 25 -35 25q-81 0 -81 -40q0 -25 29 -25q20 0 50 11q37 13 37 29z" />
    <glyph glyph-name="oslash" unicode="&#xf8;" horiz-adv-x="342" 
d="M336 394q6 -8 6 -16q0 -17 -34.5 -43.5t-34.5 -41.5q0 -14 19 -28q0 -9 12 -17.5t12 -13.5q0 -4 -4 -9q3 -11 3 -20q0 -21 -19 -47q-25 -34 -29 -42q-54 -46 -116 -46q-31 0 -57 13q-18 -2 -35 -23t-30 -25q-6 -25 -28 -32q-4 22 18 57.5t22 52.5q0 16 -12 31
q-4 19 -4 38q0 102 105 176q8 4 17 4q12 0 37 -8.5t35 -8.5q22 0 32 25q47 32 62 32q12 0 23 -8zM178 273q-3 5 -1 17q2 8 -7 8q-9 -20 -48 -49q-1 -2 -19 -24q-12 -16 -12 -24q0 -7 7 -13q30 27 80 85zM243 176v33q-3 19 -16 24q-24 -10 -48 -38q-33 -40 -41 -47v-8
q13 -8 25 -8q18 0 42 16z" />
    <glyph glyph-name="questiondown" unicode="&#xbf;" horiz-adv-x="475" 
d="M397 596q0 -36 -25 -95q-11 -28 -48 -28q-12 0 -19.5 10.5t-7.5 23.5q0 24 26.5 46t26.5 61q0 4 10 4q37 0 37 -22zM413 58q0 -40 -83 -61q-58 -15 -116 -15q-67 0 -123 14q-86 22 -86 69q0 37 81 85q75 41 150 83q81 51 81 94q0 6 3.5 15.5t3.5 15.5q0 7 -7.5 18
t-7.5 16q0 9 12 15t22 6q41 0 41 -45q0 -14 -6 -42.5t-6 -42.5t-27 -41q-40 -41 -168 -104q-48 -24 -50 -26q-33 -20 -33 -38q0 -22 38 -34q28 -9 58 -9q45 0 100 17q20 7 96 36q7 -2 17 -10.5t10 -15.5z" />
    <glyph glyph-name="exclamdown" unicode="&#xa1;" horiz-adv-x="290" 
d="M271 583q0 -22 -15 -44t-37 -22q-11 0 -25 12.5t-14 23.5q0 12 16.5 36.5t27.5 24.5q47 0 47 -31zM229 360q0 -6 -66.5 -155.5t-74.5 -159.5q-20 -26 -45 -26q-11 0 -25 10.5t-14 21.5q0 16 41 96q20 36 51 110q8 29 27 88q23 54 56 54q50 0 50 -39z" />
    <glyph glyph-name="logicalnot" unicode="&#xac;" horiz-adv-x="465" 
d="M405 336q0 -24 -26.5 -65.5t-26.5 -56.5q0 -11 -7.5 -22t-18.5 -11q-23 0 -23 29q0 15 4 45t4 44h-283q-28 0 -28 20q0 33 57 33q13 0 39.5 -1t39.5 -1q37 0 113 12t114 12q42 0 42 -38z" />
    <glyph glyph-name="florin" unicode="&#x192;" horiz-adv-x="323" 
d="M323 100q-2 -17 -30 -23t-28 -23q0 -5 2 -11q-24 -161 -214 -352q-9 0 -21.5 -5.5t-18.5 -5.5q-26 0 -26 24q0 11 13 36q20 10 48 35q22 21 45 42q4 26 36.5 64.5t36.5 64.5q31 24 40 113q-6 5 -53 12q-35 6 -35 30q0 8 3 19q21 21 65 12q22 19 22 46q0 19 -16 61t-14 63
q-19 27 -16 75q4 61 0 78q-6 48 44 73q6 0 19.5 1.5t20.5 1.5q26 0 41.5 -15.5t11.5 -28.5q-30 4 -69 -44q-5 -19 -5 -42t9.5 -70t9.5 -71q0 -10 -2 -19q29 -51 29 -117q6 -7 29 -8q19 -1 23 -16z" />
    <glyph glyph-name="guillemotleft" unicode="&#xab;" horiz-adv-x="560" 
d="M505 216q0 -5 -4 -15q-19 -19 -43 -19q-17 0 -44 9q-32 12 -42 14q-7 6 -56 24q-34 13 -34 43q0 66 70 94q14 0 30 14q24 21 26 23q66 0 66 -34q0 -23 -30 -42q-46 -27 -48 -29q-2 1 -4 1q-10 0 -16 -14q18 0 33 -17q17 -20 27 -23q8 -9 41 -12q28 -3 28 -17zM329 143
q0 -4 -2 -11q-15 -8 -33 -8q-22 0 -64.5 19t-67.5 19q-8 0 -17 -2q-12 6 -76 25q-48 15 -69 36q2 8 79 83q82 80 99 111q19 11 43 11q42 0 54 -36q-14 -39 -74 -75q-70 -42 -88 -66q23 -21 78 -38q66 -21 84 -31q6 -8 32 -16q22 -7 22 -21z" />
    <glyph glyph-name="guillemotright" unicode="&#xbb;" horiz-adv-x="530" 
d="M466 324q0 -42 -84 -108q-107 -83 -119 -100q-5 -3 -12 -3q-18 0 -18 27q0 44 38 77q36 24 72.5 49.5t36.5 55.5q0 37 -52 51q-41 7 -82 13q-13 20 -13 35q0 43 41 43q13 0 25 -5q26 0 57 -19q8 -5 52 -39q58 -45 58 -77zM251 269q-16 -29 -64 -42q-54 -15 -70 -30
q-27 0 -48.5 -35t-41.5 -35q-30 0 -30 24q0 4 2 19q3 11 1 18q32 29 97 77q37 9 44 28q-9 22 -44 30q-28 6 -57 13q-28 11 -28 42q24 16 54 16t72 -15q34 -15 68 -29q23 -9 32 -34q6 -23 13 -47z" />
    <glyph glyph-name="ellipsis" unicode="&#x2026;" horiz-adv-x="558" 
d="M474 30q0 -21 -12.5 -41t-32.5 -20q-18 0 -31 21t-13 40q0 22 19.5 38.5t46.5 16.5q23 0 23 -55zM270 16q0 -7 -4.5 -25t-4.5 -25q0 -22 -31 -22q-19 0 -36 18.5t-17 37.5q0 21 16 51.5t34 30.5q43 0 43 -66zM86 30q0 -13 -16 -22t-32 -9q-38 0 -38 28q0 11 13.5 33.5
t22.5 22.5q19 0 34.5 -17.5t15.5 -35.5z" />
    <glyph glyph-name="nonbreakingspace" unicode="&#xa0;" horiz-adv-x="250" 
 />
    <glyph glyph-name="Agrave" unicode="&#xc0;" horiz-adv-x="456" 
d="M417 256q-21 -11 -25 -29q9 -44 9 -105q0 -141 -93 -290l-38 -54q-25 -35 -27 -56q-14 -27 -29 -27q-18 0 -18 31q0 38 31 88l56 78q12 14 29 49q39 140 39 212q0 35 -7 66q-6 1 -13 1q-13 0 -40.5 -3.5t-40.5 -3.5q-82 0 -132 -9q-45 -66 -45 -129q0 -43 12 -66
q11 -19 11 -17q0 -18 -45 -18q-22 0 -36.5 19.5t-14.5 43.5q0 21 11 53q17 48 18 53q10 40 80 210q59 142 76 177q15 32 18 37q13 17 31 17q47 0 74 -67q18 -57 35 -113q11 -24 29 -71q7 -22 25 -65q3 1 6 1q14 0 14 -13zM325 285q0 4 -9 39q-26 103 -85 142q-3 -8 -50 -92
q-31 -55 -31 -98q70 -9 102 -9q39 0 72 9q1 4 1 9zM315 653q-17 -7 -33 -7q-19 0 -31 11q-18 16 -40.5 57.5t-40.5 59.5q0 16 36 28q20 -18 50 -79q26 -53 59 -70z" />
    <glyph glyph-name="Atilde" unicode="&#xc3;" horiz-adv-x="456" 
d="M417 256q-21 -11 -25 -29q9 -44 9 -105q0 -141 -93 -290l-38 -54q-25 -35 -27 -56q-14 -27 -29 -27q-18 0 -18 31q0 38 31 88l56 78q12 14 29 49q39 140 39 212q0 35 -7 66q-6 1 -13 1q-13 0 -40.5 -3.5t-40.5 -3.5q-82 0 -132 -9q-45 -66 -45 -129q0 -43 12 -66
q11 -19 11 -17q0 -18 -45 -18q-22 0 -36.5 19.5t-14.5 43.5q0 21 11 53q17 48 18 53q10 40 80 210q59 142 76 177q15 32 18 37q13 17 31 17q47 0 74 -67q18 -57 35 -113q11 -24 29 -71q7 -22 25 -65q3 1 6 1q14 0 14 -13zM325 285q0 4 -9 39q-26 103 -85 142q-3 -8 -50 -92
q-31 -55 -31 -98q70 -9 102 -9q39 0 72 9q1 4 1 9zM382 703q0 -7 -7 -16t-42 -25t-47 -16q-23 0 -42 25.5t-30 25.5q-9 0 -32.5 -22.5t-45.5 -22.5q-8 0 -18 5.5t-10 13.5v3q14 10 41 31q15 15 32 30.5t40 15.5q31 0 47 -24t24 -24q11 0 36 9t39 9q15 0 15 -18z" />
    <glyph glyph-name="Otilde" unicode="&#xd5;" 
d="M396 168q0 -63 -96 -114q-84 -45 -153 -45q-147 0 -147 140q0 56 38 170q12 36 74 96q-1 2 -21.5 19t-20.5 30t15 24.5t29 11.5q11 0 19 -8q9 -18 55 -27q38 -6 34 -42q174 -124 174 -255zM339 189q0 26 -41 84q-37 51 -64 72q-10 10 -20 19q-13 10 -26 10q-55 0 -98 -84
q-38 -72 -38 -134q0 -44 39 -68q32 -20 77 -20q65 0 135 44q19 12 24 35q10 38 12 42zM342 643q0 -7 -7 -16t-42 -25t-47 -16q-23 0 -42 25.5t-30 25.5q-9 0 -32.5 -22.5t-45.5 -22.5q-8 0 -18 5.5t-10 13.5v3q14 10 41 31q15 15 32 30.5t40 15.5q31 0 47 -24t24 -24
q11 0 36 9t39 9q15 0 15 -18z" />
    <glyph glyph-name="OE" unicode="&#x152;" horiz-adv-x="788" 
d="M788 74q-15 -14 -56.5 -20.5t-80.5 -12.5q-26 -7 -53 -13.5t-49 -6.5q2 -5 2 -9q0 -13 -14 -19.5t-28 -11.5q-18 0 -27 20q-11 27 -17 33q0 19 -15.5 49.5t-17.5 47.5q-4 1 -8 1q-10 0 -22 -12q-15 -15 -22 -18q-64 -56 -169 -56q-39 0 -82 8q-2 1 -53 24q-33 15 -48 36
q-4 25 -14 73.5t-14 72.5q14 38 36 121q39 50 77 99q55 61 103 61q25 0 54 -20q23 -18 45 -35q7 -3 25 -23q14 -16 28 -13q12 25 12 24q0 5 -4 8q-11 5 -11 13q0 5 7 15t8 12q10 18 37 18q19 0 48 -9q32 -25 82 -25q22 0 79 8q50 7 77 4q0 -22 -27 -33q-23 -10 -44.5 -20
t-72.5 -17t-70 -18q-33 -18 -36 -61q1 -8 7 -52q3 -31 13 -45q9 -1 25 0q20 2 25 2q20 0 35 -10q28 0 57 -1q35 -1 40 -27q-19 -24 -62 -30q-55 -9 -68 -15q-53 0 -26 2q-17 -1 -14 -14q-2 -6 -2 -13q0 -17 13 -40q15 -28 17 -36q87 8 267 20q14 -3 14 -20q0 -10 -6 -16z
M396 240q3 15 -6 39q-10 28 -10 37q-59 102 -117 142q-16 4 -42 -21q-29 -28 -51 -28q-92 -43 -92 -179q0 -35 7 -75q32 -50 110 -50q18 0 96 9q38 12 67.5 48t37.5 78z" />
    <glyph glyph-name="oe" unicode="&#x153;" horiz-adv-x="630" 
d="M593 83q0 -7 -2 -12q-23 -2 -66 -23t-64 -21q-121 0 -198 60q-61 -47 -110 -47q-5 0 -14.5 1.5t-14.5 1.5q-31 0 -57 24q-14 12 -41 49q-21 28 -21 41q0 8 2.5 23.5t2.5 22.5q0 18 -10 30v5q-1 38 41 65q38 24 79 24q49 0 114 -66h8q16 0 27 20q15 30 18 33q9 8 37.5 22
t39.5 14q22 0 81 -24q10 -24 21 -47q14 -28 14 -49q0 -22 -15 -42q-19 -3 -71 -28q-42 -21 -75 -16q-9 -4 -9 -11q0 -6 21 -25q7 1 13 1q15 0 43.5 -13t44.5 -13q21 0 59.5 11t59.5 11q15 0 32 -1q10 -8 10 -21zM397 241q0 22 -18 22q-16 0 -37 -20q-15 -15 -31 -30
q8 -6 19 -6q22 0 66 30q1 2 1 4zM198 160q0 17 -14 51q-16 38 -30 38q-15 0 -65 -28q-23 -13 -23 -49q0 -27 20 -48.5t47 -21.5q24 0 44.5 19t20.5 39z" />
    <glyph glyph-name="endash" unicode="&#x2013;" horiz-adv-x="420" 
d="M368 252q0 -39 -20 -39q-19 0 -55.5 8t-55.5 8q-107 0 -146 1q-17 -13 -44 -13q-42 0 -42 32q0 16 14 27.5t29 11.5q13 0 26 -7q5 1 16.5 3.5t18.5 2.5q27 0 81 -3t81 -3q6 0 29 1q17 1 28 0q5 3 9 3q11 0 21 -11t10 -22z" />
    <glyph glyph-name="emdash" unicode="&#x2014;" horiz-adv-x="550" 
d="M492 252q0 -39 -27 -39q-35 0 -73.5 8t-73.5 8q-144 0 -195 1q-23 -13 -59 -13q-56 0 -56 32q0 17 21 29q18 10 37 10q17 0 34 -7q7 1 22.5 3.5t23.5 2.5q36 0 108.5 -3t108.5 -3q8 0 38 1q23 1 38 0q7 3 12 3q13 0 27 -10.5t14 -22.5z" />
    <glyph glyph-name="quotedblleft" unicode="&#x201c;" horiz-adv-x="335" 
d="M263 523q0 -16 -32 -49t-32 -60q0 -8 2 -15q-4 -11 -18 -11q-7 0 -14 2q-19 22 -19 57q0 40 21 69q23 33 62 33q8 0 16 -1q14 -9 14 -25zM129 553q0 -17 -16 -35q-19 -21 -21.5 -31t-17 -28.5t-14.5 -26.5t8 -17q-3 -9 -12 -19t-17 -10q-16 0 -26 16t-10 29q0 36 31 71
q14 16 62 54q3 -2 7 -2t11 2.5t10 2.5q5 0 5 -6z" />
    <glyph glyph-name="quotedblright" unicode="&#x201d;" horiz-adv-x="260" 
d="M198 478q0 -28 -21 -104q-8 -8 -19 -8q-6 0 -22 4q-9 9 -9 20q0 9 7.5 25t7.5 25q0 11 -10 19q0 17 -19 45.5t-19 42.5q0 13 12 23.5t25 10.5q30 0 34 -21q2 -15 9 -22t15 -14q9 -21 9 -46zM80 419q0 -13 -4 -25q-6 -6 -15 -6q-7 0 -21.5 6.5t-20.5 8.5q0 26 -10 78
t-10 79q0 9 5 10t11 2q23 -4 34 -38q7 -27 15 -55q16 -40 16 -60z" />
    <glyph glyph-name="quoteleft" unicode="&#x2018;" horiz-adv-x="220" 
d="M159 576q0 -10 -39.5 -38t-42.5 -53t-3 -47q0 -33 17 -46t17 -19q0 -5 -9.5 -12t-12.5 -15q-3 -12 -14 -12q-26 0 -44 26q-16 23 -16 51q0 56 29 111q33 64 82 64q36 0 36 -10z" />
    <glyph glyph-name="quoteright" unicode="&#x2019;" horiz-adv-x="220" 
d="M142 498q0 -30 -31 -86q-29 -51 -55 -76q-6 -2 -11 -2q-30 0 -30 18q0 14 33.5 56.5t33.5 60.5q0 31 -6 40q-2 4 -23 25q-17 16 -17 27q0 7 16 15q13 6 22 6q23 0 45.5 -29.5t22.5 -54.5z" />
    <glyph glyph-name="ydieresis" unicode="&#xff;" horiz-adv-x="355" 
d="M371 -149q-18 -43 -62 -47q-125 -9 -195 -31q-81 -27 -174 -94q-28 -21 -41 -21l-4 1q-2 5 -2 12t2 12q57 52 137 102q100 63 152 63q20 0 47 6q39 9 47 10q6 6 6 14q0 13 -9 23q-46 48 -83 130q-12 -9 -23 -16.5t-32 -7.5q-52 0 -84 33t-32 85q0 11 2.5 34t2.5 34
q0 33 -17 54q7 19 54 37q12 -2 34 -11v-11q0 -7 -5 -21.5t-5 -22.5q0 -14 -1.5 -41t-1.5 -40q0 -61 38 -61q54 0 70 78q8 58 16 115q5 15 24 15t41 -13.5t22 -32.5q0 -3 -8 -27l-10 -30q-16 -63 -16 -143q0 -47 48 -92q53 -49 62 -95zM275 410q0 -18 -33 -18q-20 0 -34.5 19
t-14.5 39q0 28 33 28q11 0 21.5 -15t9.5 -26q0 -7 9 -14.5t9 -12.5zM106 455q0 -7 -1 -19.5t-1 -19.5q0 -25 -29 -25q-16 0 -16 10q0 3 1.5 9t1.5 9q0 7 -3.5 21t-3.5 22q0 24 31 24q20 0 20 -31z" />
    <glyph glyph-name="Ydieresis" unicode="&#x178;" horiz-adv-x="400" 
d="M412 592q0 -28 -35 -77q-47 -68 -53 -81q-23 -46 -132 -136q-13 -15 -55 -46q-1 -23 -26 -107q-25 -88 -29 -132q-2 -19 -19 -19q-31 0 -31 23q0 35 14 100q16 72 18 106l1 9q-41 16 -46 61q-2 19 -1 56q2 38 0 57q-2 20 6 62t5 64q-1 9 -7 23.5t-7 21.5q-2 14 15 24
q13 8 28 8q8 0 18.5 -7.5t10.5 -15.5q0 -13 -10 -87.5t-9 -90.5q2 -10 0 -31t-1 -32q4 -37 35 -37q5 0 16 7.5t14 9.5q124 46 195 213q8 26 26 78q5 10 23 12q36 4 36 -36zM321 677q0 -18 -33 -18q-20 0 -34.5 19t-14.5 39q0 28 33 28q11 0 21.5 -15t9.5 -26q0 -7 9 -14.5
t9 -12.5zM152 722q0 -7 -1 -19.5t-1 -19.5q0 -25 -29 -25q-16 0 -16 10q0 3 1.5 9t1.5 9q0 7 -3.5 21t-3.5 22q0 24 31 24q20 0 20 -31z" />
    <glyph glyph-name="currency" unicode="&#xa4;" horiz-adv-x="379" 
d="M311 424q-10 -10 -36.5 -16t-36.5 -16v-5q-1 -19 19.5 -48t20.5 -46q0 -13 -7 -26q-6 -3 -15 -3t-18 3q-15 33 -52 97q-4 -6 -8 -40q-3 -26 -23 -26q-5 0 -10 1.5t-16 7.5q0 4 3 12t3 12q0 7 -6 12q-28 -18 -46 -18q-16 0 -30 10q-3 4 -3 8q0 9 15.5 22.5t15.5 23.5v3
q-62 7 -81 36q7 4 17 25q9 18 21 18q5 0 9.5 -1.5t12.5 -4t12 -2.5q5 0 9 6q-16 20 -16 44q0 57 68 57q7 20 13 41q11 25 31 25q13 0 33 -14q10 -19 10 -37q0 -30 -26 -52q0 -25 16 -36q27 18 81 52q13 -6 13 -18l-1 -6q-10 -17 -36.5 -43t-36.5 -42q12 -5 40 -6t41 -10z
" />
    <glyph glyph-name="guilsinglleft" unicode="&#x2039;" horiz-adv-x="330" 
d="M274 134q0 -4 -3 -10q-35 0 -99 26t-103 26t-69 53q2 13 19 23q21 12 25 17q9 29 49 68t48 66q13 8 27 17t27 7q13 -1 13 -27q0 -30 -47.5 -78.5t-47.5 -69.5q0 -14 24 -23q28 -11 66 -36q50 -33 64 -41q7 -13 7 -18z" />
    <glyph glyph-name="guilsinglright" unicode="&#x203a;" horiz-adv-x="330" 
d="M276 299q0 -30 -30 -30q-17 -35 -85 -69t-88 -72q-13 -9 -26 -9q-16 0 -26 14.5t-10 30.5q0 13 13 20q16 27 64 50q53 26 70 43q-17 18 -60 32q-52 17 -65 25q-31 20 -33 56q4 4 11 17q5 8 18 8q47 0 92 -45q65 -19 112 -30q13 -8 27 -16q16 -12 16 -25z" />
    <glyph glyph-name="daggerdbl" unicode="&#x2021;" horiz-adv-x="270" 
d="M247 288l-1 -4q-15 -5 -60 -32q-8 -35 -20 -105q6 -15 24 -18q-3 1 31 1q26 0 25 -24q-13 0 -38.5 -13t-41.5 -11q-12 -9 -18 -26.5t-11 -34.5q5 -11 5 -25q0 -7 -1 -32v-31q1 -14 -13 -14q-48 0 -48 57q0 14 5 42t4 43v9q-10 6 -36.5 9.5t-36.5 9.5q-16 10 -16 33
q0 9 15 21t24 12q10 0 29 -9t27 -9q14 0 25 41q9 34 9 54q0 11 -4 20q-12 9 -44 9t-43 6q-20 9 -20 42l2 11q13 11 32 11q12 0 36.5 -5.5t36.5 -5.5q9 8 9 18q0 3 4 60q2 21 -15 58.5t-15 57.5q1 12 17 19.5t31 7.5q6 0 14 -2q28 -42 28 -62q0 -9 -4 -19v-25q1 -17 1 -26
q0 -12 -3 -36.5t-3 -37.5t5 -21q55 0 53 -24z" />
    <glyph glyph-name="periodcentered" unicode="&#xb7;" horiz-adv-x="220" 
d="M157 227q0 -24 -25 -47.5t-52 -23.5q-10 0 -21 6q-3 4 -26 29q-17 17 -17 33q0 10 -3 20t-3 14q0 14 29.5 37.5t44.5 23.5q37 0 56 -30q17 -25 17 -62z" />
    <glyph glyph-name="periodcentered" unicode="&#x2219;" horiz-adv-x="220" 
d="M157 227q0 -24 -25 -47.5t-52 -23.5q-10 0 -21 6q-3 4 -26 29q-17 17 -17 33q0 10 -3 20t-3 14q0 14 29.5 37.5t44.5 23.5q37 0 56 -30q17 -25 17 -62z" />
    <glyph glyph-name="quotesinglbase" unicode="&#x201a;" horiz-adv-x="200" 
d="M122 -3q0 -30 -31 -86q-29 -51 -55 -76q-6 -1 -11 -1q-30 0 -30 17q0 14 33.5 56.5t33.5 60.5q0 31 -6 40q-2 4 -23 25q-17 16 -17 27q0 7 16 15q13 6 22 6q23 0 45.5 -29.5t22.5 -54.5z" />
    <glyph glyph-name="quotedblbase" unicode="&#x201e;" horiz-adv-x="300" 
d="M228 27q0 -37 -41.5 -83t-74.5 -46q-10 0 -10 7q0 13 34.5 57.5t34.5 62.5q0 4 -4 9.5t-4 8.5q0 8 10 18t19 10q14 0 25 -14.5t11 -29.5zM91 15q0 -24 -36.5 -65.5t-53.5 -41.5q-28 0 -28 27q0 9 16 23q22 19 31 32q16 25 16 62q0 6 8 12.5t14 6.5q33 0 33 -56z" />
    <glyph glyph-name="perthousand" unicode="&#x2030;" horiz-adv-x="850" 
d="M267 415q0 -61 -80 -107q-8 -5 -26 -12.5t-58 -7.5q-95 0 -95 85q0 36 21 79q2 3 42 71q14 4 34 33q18 25 38 25q31 0 92 -64q12 -13 22 -47t10 -55zM532 116q0 -65 -79 -113q-8 -6 -26 -14t-58 -8q-94 0 -94 90q0 38 21 82q2 5 42 75q14 5 34 36q17 26 37 26
q30 0 91 -68q12 -14 22 -49.5t10 -56.5zM484 525q0 -16 -18 -27q-39 -25 -86 -97q-64 -99 -74 -111q-39 -47 -90 -125q-58 -87 -74 -131q-7 -27 -13 -55q-10 -41 -24 -41q-43 0 -43 50q0 51 74 160q10 15 145 200q87 117 106 171q6 19 11 37q9 21 29 21q19 0 38 -16.5
t19 -35.5zM213 427q0 44 -37 73q-20 -1 -54 -12q-18 -20 -42 -59q-19 -56 -19 -60q0 -28 47 -28q17 0 47 9.5t44 20.5t14 56zM478 123q0 51 -36 82q-20 -2 -54 -13q-18 -21 -41 -62q-19 -60 -19 -63q0 -30 46 -30q17 0 47 10t43.5 21.5t13.5 54.5zM812 116q0 -65 -79 -113
q-8 -6 -26 -14t-58 -8q-94 0 -94 90q0 38 21 82q2 5 42 75q14 5 34 36q17 26 37 26q30 0 91 -68q12 -14 22 -49.5t10 -56.5zM758 123q0 51 -36 82q-20 -2 -54 -13q-18 -21 -41 -62q-19 -60 -19 -63q0 -30 46 -30q17 0 47 10t43.5 21.5t13.5 54.5z" />
    <glyph glyph-name="Acircumflex" unicode="&#xc2;" horiz-adv-x="456" 
d="M417 256q-21 -11 -25 -29q9 -44 9 -105q0 -141 -93 -290l-38 -54q-25 -35 -27 -56q-14 -27 -29 -27q-18 0 -18 31q0 38 31 88l56 78q12 14 29 49q39 140 39 212q0 35 -7 66q-6 1 -13 1q-13 0 -40.5 -3.5t-40.5 -3.5q-82 0 -132 -9q-45 -66 -45 -129q0 -43 12 -66
q11 -19 11 -17q0 -18 -45 -18q-22 0 -36.5 19.5t-14.5 43.5q0 21 11 53q17 48 18 53q10 40 80 210q59 142 76 177q15 32 18 37q13 17 31 17q47 0 74 -67q18 -57 35 -113q11 -24 29 -71q7 -22 25 -65q3 1 6 1q14 0 14 -13zM325 285q0 4 -9 39q-26 103 -85 142q-3 -8 -50 -92
q-31 -55 -31 -98q70 -9 102 -9q39 0 72 9q1 4 1 9zM350 666q0 -24 -24 -24q-27 0 -45.5 54.5t-34.5 54.5q-4 0 -14.5 -15t-12.5 -16q-25 -22 -62 -38q-5 2 -11 5.5t-6 5.5q0 6 11 16q7 8 15 15q39 50 65 127q11 13 27 13q12 0 29 -8q23 -11 28 -13q7 -7 7 -14q0 -6 -5.5 -16
t-5.5 -16q0 -92 39 -131z" />
    <glyph glyph-name="Ecircumflex" unicode="&#xca;" horiz-adv-x="550" 
d="M554 151q0 -7 -5 -8q-108 -35 -335 -122q-86 -32 -149 -64q-35 2 -49 39l-16 66q9 29 12 78q4 59 8 79q10 44 19 88q11 52 11 89q0 11 -4 33.5t-4 32.5q0 5 2 24q2 15 0 24q10 2 38 15q23 10 38 10t29 -9q34 18 103 29q73 11 104 24q24 0 24 -25q0 -5 -14 -9
q-9 -3 -19 -6q-67 -25 -198 -85q-3 -13 -22.5 -30t-21.5 -35q-1 -14 -10 -69q-6 -42 -6 -68q0 -2 3.5 -4t4.5 -4q57 16 174 36q4 -10 4 -17q0 -16 -26 -25q-32 -11 -39 -19q-31 -7 -72 -30q-35 -19 -69 -38q1 -7 1 -15q0 -9 -3 -26t-3 -26q0 -20 13 -34q16 -4 30 -4
q19 0 138 36l150 46q33 12 66 23q40 14 68 14q14 0 25 -14zM340 666q0 -24 -24 -24q-27 0 -45.5 54.5t-34.5 54.5q-4 0 -14.5 -15t-12.5 -16q-25 -22 -62 -38q-5 2 -11 5.5t-6 5.5q0 6 11 16q7 8 15 15q39 50 65 127q11 13 27 13q12 0 29 -8q23 -11 28 -13q7 -7 7 -14
q0 -6 -5.5 -16t-5.5 -16q0 -92 39 -131z" />
    <glyph glyph-name="Aacute" unicode="&#xc1;" horiz-adv-x="456" 
d="M417 256q-21 -11 -25 -29q9 -44 9 -105q0 -141 -93 -290l-38 -54q-25 -35 -27 -56q-14 -27 -29 -27q-18 0 -18 31q0 38 31 88l56 78q12 14 29 49q39 140 39 212q0 35 -7 66q-6 1 -13 1q-13 0 -40.5 -3.5t-40.5 -3.5q-82 0 -132 -9q-45 -66 -45 -129q0 -43 12 -66
q11 -19 11 -17q0 -18 -45 -18q-22 0 -36.5 19.5t-14.5 43.5q0 21 11 53q17 48 18 53q10 40 80 210q59 142 76 177q15 32 18 37q13 17 31 17q47 0 74 -67q18 -57 35 -113q11 -24 29 -71q7 -22 25 -65q3 1 6 1q14 0 14 -13zM325 285q0 4 -9 39q-26 103 -85 142q-3 -8 -50 -92
q-31 -55 -31 -98q70 -9 102 -9q39 0 72 9q1 4 1 9zM352 779q0 6 -4 -12q-19 -9 -103 -68q-63 -43 -111 -53q-1 1 -8.5 3t-7.5 9q0 23 40 49q28 18 57 36q21 12 65 33l6 -1q9 -1 25 5.5t23 6.5q18 0 18 -8z" />
    <glyph glyph-name="Edieresis" unicode="&#xcb;" horiz-adv-x="550" 
d="M554 151q0 -7 -5 -8q-108 -35 -335 -122q-86 -32 -149 -64q-35 2 -49 39l-16 66q9 29 12 78q4 59 8 79q10 44 19 88q11 52 11 89q0 11 -4 33.5t-4 32.5q0 5 2 24q2 15 0 24q10 2 38 15q23 10 38 10t29 -9q34 18 103 29q73 11 104 24q24 0 24 -25q0 -5 -14 -9
q-9 -3 -19 -6q-67 -25 -198 -85q-3 -13 -22.5 -30t-21.5 -35q-1 -14 -10 -69q-6 -42 -6 -68q0 -2 3.5 -4t4.5 -4q57 16 174 36q4 -10 4 -17q0 -16 -26 -25q-32 -11 -39 -19q-31 -7 -72 -30q-35 -19 -69 -38q1 -7 1 -15q0 -9 -3 -26t-3 -26q0 -20 13 -34q16 -4 30 -4
q19 0 138 36l150 46q33 12 66 23q40 14 68 14q14 0 25 -14zM355 660q0 -18 -33 -18q-20 0 -34.5 19t-14.5 39q0 28 33 28q11 0 21.5 -15t9.5 -26q0 -7 9 -14.5t9 -12.5zM186 705q0 -7 -1 -19.5t-1 -19.5q0 -25 -29 -25q-16 0 -16 10q0 3 1.5 9t1.5 9q0 7 -3.5 21t-3.5 22
q0 24 31 24q20 0 20 -31z" />
    <glyph glyph-name="Egrave" unicode="&#xc8;" horiz-adv-x="550" 
d="M554 151q0 -7 -5 -8q-108 -35 -335 -122q-86 -32 -149 -64q-35 2 -49 39l-16 66q9 29 12 78q4 59 8 79q10 44 19 88q11 52 11 89q0 11 -4 33.5t-4 32.5q0 5 2 24q2 15 0 24q10 2 38 15q23 10 38 10t29 -9q34 18 103 29q73 11 104 24q24 0 24 -25q0 -5 -14 -9
q-9 -3 -19 -6q-67 -25 -198 -85q-3 -13 -22.5 -30t-21.5 -35q-1 -14 -10 -69q-6 -42 -6 -68q0 -2 3.5 -4t4.5 -4q57 16 174 36q4 -10 4 -17q0 -16 -26 -25q-32 -11 -39 -19q-31 -7 -72 -30q-35 -19 -69 -38q1 -7 1 -15q0 -9 -3 -26t-3 -26q0 -20 13 -34q16 -4 30 -4
q19 0 138 36l150 46q33 12 66 23q40 14 68 14q14 0 25 -14zM315 653q-17 -7 -33 -7q-19 0 -31 11q-18 16 -40.5 57.5t-40.5 59.5q0 16 36 28q20 -18 50 -79q26 -53 59 -70z" />
    <glyph glyph-name="Iacute" unicode="&#xcd;" 
d="M461 540q-10 -18 -33 -27q-6 -2 -43 -10q-36 -13 -110 -30q-70 -234 -70 -347q0 -22 10 -30q116 35 147 35q13 0 22.5 -11.5t9.5 -24.5q0 -28 -60 -36q-2 -1 -72 -13q-47 -9 -72 -9q-3 0 -10 1h-10q-29 0 -81.5 -16t-73.5 -16q-15 0 -15 13q0 22 60 42q41 12 81 24
q10 98 21 196q14 128 40 187q-74 -12 -103 -12q-44 0 -44 13t64 34q43 15 81 23q20 35 50 35q13 0 22 -10t34 -10q19 0 55 9.5t55 9.5q37 0 45 -20zM372 779q0 6 -4 -12q-19 -9 -103 -68q-63 -43 -111 -53q-1 1 -8.5 3t-7.5 9q0 23 40 49q28 18 57 36q21 12 65 33l6 -1
q9 -1 25 5.5t23 6.5q18 0 18 -8z" />
    <glyph glyph-name="Icircumflex" unicode="&#xce;" 
d="M461 540q-10 -18 -33 -27q-6 -2 -43 -10q-36 -13 -110 -30q-70 -234 -70 -347q0 -22 10 -30q116 35 147 35q13 0 22.5 -11.5t9.5 -24.5q0 -28 -60 -36q-2 -1 -72 -13q-47 -9 -72 -9q-3 0 -10 1h-10q-29 0 -81.5 -16t-73.5 -16q-15 0 -15 13q0 22 60 42q41 12 81 24
q10 98 21 196q14 128 40 187q-74 -12 -103 -12q-44 0 -44 13t64 34q43 15 81 23q20 35 50 35q13 0 22 -10t34 -10q19 0 55 9.5t55 9.5q37 0 45 -20zM370 666q0 -24 -24 -24q-27 0 -45.5 54.5t-34.5 54.5q-4 0 -14.5 -15t-12.5 -16q-25 -22 -62 -38q-5 2 -11 5.5t-6 5.5
q0 6 11 16q7 8 15 15q39 50 65 127q11 13 27 13q12 0 29 -8q23 -11 28 -13q7 -7 7 -14q0 -6 -5.5 -16t-5.5 -16q0 -92 39 -131z" />
    <glyph glyph-name="Idieresis" unicode="&#xcf;" 
d="M461 540q-10 -18 -33 -27q-6 -2 -43 -10q-36 -13 -110 -30q-70 -234 -70 -347q0 -22 10 -30q116 35 147 35q13 0 22.5 -11.5t9.5 -24.5q0 -28 -60 -36q-2 -1 -72 -13q-47 -9 -72 -9q-3 0 -10 1h-10q-29 0 -81.5 -16t-73.5 -16q-15 0 -15 13q0 22 60 42q41 12 81 24
q10 98 21 196q14 128 40 187q-74 -12 -103 -12q-44 0 -44 13t64 34q43 15 81 23q20 35 50 35q13 0 22 -10t34 -10q19 0 55 9.5t55 9.5q37 0 45 -20zM375 670q0 -18 -33 -18q-20 0 -34.5 19t-14.5 39q0 28 33 28q11 0 21.5 -15t9.5 -26q0 -7 9 -14.5t9 -12.5zM206 715
q0 -7 -1 -19.5t-1 -19.5q0 -25 -29 -25q-16 0 -16 10q0 3 1.5 9t1.5 9q0 7 -3.5 21t-3.5 22q0 24 31 24q20 0 20 -31z" />
    <glyph glyph-name="Igrave" unicode="&#xcc;" 
d="M461 540q-10 -18 -33 -27q-6 -2 -43 -10q-36 -13 -110 -30q-70 -234 -70 -347q0 -22 10 -30q116 35 147 35q13 0 22.5 -11.5t9.5 -24.5q0 -28 -60 -36q-2 -1 -72 -13q-47 -9 -72 -9q-3 0 -10 1h-10q-29 0 -81.5 -16t-73.5 -16q-15 0 -15 13q0 22 60 42q41 12 81 24
q10 98 21 196q14 128 40 187q-74 -12 -103 -12q-44 0 -44 13t64 34q43 15 81 23q20 35 50 35q13 0 22 -10t34 -10q19 0 55 9.5t55 9.5q37 0 45 -20zM335 653q-17 -7 -33 -7q-19 0 -31 11q-18 16 -40.5 57.5t-40.5 59.5q0 16 36 28q20 -18 50 -79q26 -53 59 -70z" />
    <glyph glyph-name="Oacute" unicode="&#xd3;" 
d="M396 168q0 -63 -96 -114q-84 -45 -153 -45q-147 0 -147 140q0 56 38 170q12 36 74 96q-1 2 -21.5 19t-20.5 30t15 24.5t29 11.5q11 0 19 -8q9 -18 55 -27q38 -6 34 -42q174 -124 174 -255zM339 189q0 26 -41 84q-37 51 -64 72q-10 10 -20 19q-13 10 -26 10q-55 0 -98 -84
q-38 -72 -38 -134q0 -44 39 -68q32 -20 77 -20q65 0 135 44q19 12 24 35q10 38 12 42zM322 709q0 6 -4 -12q-19 -9 -103 -68q-63 -43 -111 -53q-1 1 -8.5 3t-7.5 9q0 23 40 49q28 18 57 36q21 12 65 33l6 -1q9 -1 25 5.5t23 6.5q18 0 18 -8z" />
    <glyph glyph-name="Ocircumflex" unicode="&#xd4;" 
d="M396 168q0 -63 -96 -114q-84 -45 -153 -45q-147 0 -147 140q0 56 38 170q12 36 74 96q-1 2 -21.5 19t-20.5 30t15 24.5t29 11.5q11 0 19 -8q9 -18 55 -27q38 -6 34 -42q174 -124 174 -255zM339 189q0 26 -41 84q-37 51 -64 72q-10 10 -20 19q-13 10 -26 10q-55 0 -98 -84
q-38 -72 -38 -134q0 -44 39 -68q32 -20 77 -20q65 0 135 44q19 12 24 35q10 38 12 42zM300 576q0 -24 -24 -24q-27 0 -45.5 54.5t-34.5 54.5q-4 0 -14.5 -15t-12.5 -16q-25 -22 -62 -38q-5 2 -11 5.5t-6 5.5q0 6 11 16q7 8 15 15q39 50 65 127q11 13 27 13q12 0 29 -8
q23 -11 28 -13q7 -7 7 -14q0 -6 -5.5 -16t-5.5 -16q0 -92 39 -131z" />
    <glyph glyph-name="Ograve" unicode="&#xd2;" 
d="M396 168q0 -63 -96 -114q-84 -45 -153 -45q-147 0 -147 140q0 56 38 170q12 36 74 96q-1 2 -21.5 19t-20.5 30t15 24.5t29 11.5q11 0 19 -8q9 -18 55 -27q38 -6 34 -42q174 -124 174 -255zM339 189q0 26 -41 84q-37 51 -64 72q-10 10 -20 19q-13 10 -26 10q-55 0 -98 -84
q-38 -72 -38 -134q0 -44 39 -68q32 -20 77 -20q65 0 135 44q19 12 24 35q10 38 12 42zM265 583q-17 -7 -33 -7q-19 0 -31 11q-18 16 -40.5 57.5t-40.5 59.5q0 16 36 28q20 -18 50 -79q26 -53 59 -70z" />
    <glyph glyph-name="Uacute" unicode="&#xda;" 
d="M448 486q-22 -20 -25 -70q-3 -56 -15 -75q-30 -48 -49.5 -115t-19.5 -124q0 -8 15 -42.5t15 -52.5q0 -11 -22 -11q-24 0 -44 40q-18 35 -18 62q0 16 7 46.5t7 46.5q-31 -31 -97 -85l-68 -50q-42 -30 -65 -30q-69 0 -69 76q0 35 51 160q35 84 70 169q6 13 16 39q4 22 7 45
q7 28 30 28q32 0 32 -45q0 -34 -58 -153q-78 -164 -78 -208q0 -19 15 -19q46 0 118 52q59 42 97 88q18 45 31 103q17 70 12 105l16 52q10 31 33 41q25 -3 38 -27zM402 779q0 6 -4 -12q-19 -9 -103 -68q-63 -43 -111 -53q-1 1 -8.5 3t-7.5 9q0 23 40 49q28 18 57 36
q21 12 65 33l6 -1q9 -1 25 5.5t23 6.5q18 0 18 -8z" />
    <glyph glyph-name="Ucircumflex" unicode="&#xdb;" 
d="M448 486q-22 -20 -25 -70q-3 -56 -15 -75q-30 -48 -49.5 -115t-19.5 -124q0 -8 15 -42.5t15 -52.5q0 -11 -22 -11q-24 0 -44 40q-18 35 -18 62q0 16 7 46.5t7 46.5q-31 -31 -97 -85l-68 -50q-42 -30 -65 -30q-69 0 -69 76q0 35 51 160q35 84 70 169q6 13 16 39q4 22 7 45
q7 28 30 28q32 0 32 -45q0 -34 -58 -153q-78 -164 -78 -208q0 -19 15 -19q46 0 118 52q59 42 97 88q18 45 31 103q17 70 12 105l16 52q10 31 33 41q25 -3 38 -27zM410 666q0 -24 -24 -24q-27 0 -45.5 54.5t-34.5 54.5q-4 0 -14.5 -15t-12.5 -16q-25 -22 -62 -38
q-5 2 -11 5.5t-6 5.5q0 6 11 16q7 8 15 15q39 50 65 127q11 13 27 13q12 0 29 -8q23 -11 28 -13q7 -7 7 -14q0 -6 -5.5 -16t-5.5 -16q0 -92 39 -131z" />
    <glyph glyph-name="Ugrave" unicode="&#xd9;" 
d="M448 486q-22 -20 -25 -70q-3 -56 -15 -75q-30 -48 -49.5 -115t-19.5 -124q0 -8 15 -42.5t15 -52.5q0 -11 -22 -11q-24 0 -44 40q-18 35 -18 62q0 16 7 46.5t7 46.5q-31 -31 -97 -85l-68 -50q-42 -30 -65 -30q-69 0 -69 76q0 35 51 160q35 84 70 169q6 13 16 39q4 22 7 45
q7 28 30 28q32 0 32 -45q0 -34 -58 -153q-78 -164 -78 -208q0 -19 15 -19q46 0 118 52q59 42 97 88q18 45 31 103q17 70 12 105l16 52q10 31 33 41q25 -3 38 -27zM375 653q-17 -7 -33 -7q-19 0 -31 11q-18 16 -40.5 57.5t-40.5 59.5q0 16 36 28q20 -18 50 -79q26 -53 59 -70
z" />
    <glyph glyph-name="circumflex" unicode="&#x2c6;" horiz-adv-x="250" 
d="M230 356q0 -24 -24 -24q-27 0 -45.5 54.5t-34.5 54.5q-4 0 -14.5 -15t-12.5 -16q-25 -22 -62 -38q-5 2 -11 5.5t-6 5.5q0 6 11 16q7 8 15 15q39 50 65 127q11 13 27 13q12 0 29 -8q23 -11 28 -13q7 -7 7 -14q0 -6 -5.5 -16t-5.5 -16q0 -92 39 -131z" />
    <glyph glyph-name="tilde" unicode="&#x2dc;" horiz-adv-x="330" 
d="M302 433q0 -7 -7 -16t-42 -25t-47 -16q-23 0 -42 25.5t-30 25.5q-9 0 -32.5 -22.5t-45.5 -22.5q-8 0 -18 5.5t-10 13.5v3q14 10 41 31q15 15 32 30.5t40 15.5q31 0 47 -24t24 -24q11 0 36 9t39 9q15 0 15 -18z" />
    <glyph glyph-name="macron" unicode="&#xaf;" horiz-adv-x="300" 
d="M282 418q0 -1 -9 -11q-12 1 -26 1q-23 0 -68 -3.5t-68 -3.5q-48 0 -84 13q-1 2 -5 6t-4 7q0 29 81 29h80q18 0 58 -12q45 -13 45 -26z" />
    <glyph glyph-name="macron" unicode="&#x2c9;" horiz-adv-x="300" 
d="M282 418q0 -1 -9 -11q-12 1 -26 1q-23 0 -68 -3.5t-68 -3.5q-48 0 -84 13q-1 2 -5 6t-4 7q0 29 81 29h80q18 0 58 -12q45 -13 45 -26z" />
    <glyph glyph-name="cedilla" unicode="&#xb8;" horiz-adv-x="275" 
d="M241 -125q0 -9 -2 -16q-33 -20 -105.5 -44.5t-105.5 -44.5q-28 0 -28 20q0 9 9 24q19 33 79.5 49t81.5 44q-9 15 -9 35q0 6 1.5 20t1.5 21q0 24 -14 41q3 24 25 24q31 0 38 -19q2 -8 2 -46q0 -16 13 -52.5t13 -55.5z" />
    <glyph glyph-name="HT" horiz-adv-x="250" 
 />
    <glyph glyph-name="nonmarkingreturn" horiz-adv-x="250" 
 />
    <glyph glyph-name="DEL" horiz-adv-x="250" 
 />
    <glyph glyph-name="product" unicode="&#x220f;" horiz-adv-x="352" 
d="M353 -22q0 -15 -29 -15q-21 0 -37 10q-17 31 -43 31q-16 0 -49.5 -15t-52.5 -15q-43 0 -91 53q-45 50 -51 95q18 26 61 36q36 7 72 13l60 8q38 10 38 35q0 20 -14 49q-17 33 -35 33q-16 0 -47.5 -7.5t-47.5 -7.5q-30 0 -30 23q0 28 22.5 52.5t49.5 24.5q66 0 94 -8
q50 -15 68 -61q5 -11 12 -36q5 -34 5 -143q0 -71 15 -116q30 -22 30 -39zM234 99q-11 25 -16 25q-101 0 -101 -42q0 -27 27 -27q22 0 47 17q22 13 43 27z" />
    <glyph glyph-name="pi" unicode="&#x3c0;" horiz-adv-x="510" 
d="M473 273q-25 -39 -95 -44q-84 -7 -107 -20q3 -22 24 -49q28 -35 33 -44q14 -8 16 -23l4 -30q-10 -36 -12 -40q-10 -22 -31 -22q-52 0 -70 48q-10 46 -20 91q-12 8 -28 38t-25 35q-47 3 -95 7q-67 16 -67 85q0 45 37 45q35 -16 70 -31q41 -19 55 -50q10 -2 19 -2
q46 0 46 43q0 109 8 157q18 14 48 14q37 0 37 -22q-42 -60 -42 -157q0 -15 1 -29q18 -4 39 -4q38 0 103 8q4 1 14.5 4.5t17.5 3.5q13 0 20 -12z" />
    <glyph glyph-name="integral" unicode="&#x222b;" horiz-adv-x="236" 
d="M230 512q6 -8 6 -15q0 -14 -23 -25q-18 -9 -35 -17q-20 -16 -39 -33q-23 -21 -18 -48q2 -44 32.5 -121t32.5 -121q8 -22 11 -65q4 -49 9 -68q-9 -55 -17 -110q-11 -64 -48 -101q-13 -12 -27 -25q-17 -17 -17 -31l-34 -22q-20 -13 -36 -13q-12 0 -23 7q-4 9 -4 18
q0 21 40.5 47t44.5 52q57 73 57 150q0 29 -9 56q8 23 8 50q0 44 -32 140q2 13 -13.5 34t-15.5 34q0 4 1 8q-11 22 -22 43q-11 25 -11 44q0 13 4 27q0 38 38 62q34 17 67 35q9 0 26.5 6.5t26.5 6.5q10 0 20 -5z" />
    <glyph glyph-name="Omega" unicode="&#x3a9;" horiz-adv-x="360" 
d="M354 65q0 -31 -73 -50q-54 -14 -99 -14q-46 0 -86 20q-43 21 -64 60q-31 57 -31 117q0 18 3 30q28 113 112 113q65 0 107 -18q17 -7 30 -35.5t13 -50.5q0 -10 -10 -27q-20 -33 -82 -44q-49 -6 -97 -12q-4 -6 -4 -11q0 -23 25 -50t49 -33t67 -6q8 0 22 1h22q14 0 40.5 8
t41.5 8q14 0 14 -6zM183 242q0 8 -17 20t-26 12q-11 0 -30.5 -11t-19.5 -20q0 -20 39 -20q11 0 30 5q24 6 24 14z" />
    <glyph glyph-name="Omega" unicode="&#x2126;" horiz-adv-x="360" 
d="M354 65q0 -31 -73 -50q-54 -14 -99 -14q-46 0 -86 20q-43 21 -64 60q-31 57 -31 117q0 18 3 30q28 113 112 113q65 0 107 -18q17 -7 30 -35.5t13 -50.5q0 -10 -10 -27q-20 -33 -82 -44q-49 -6 -97 -12q-4 -6 -4 -11q0 -23 25 -50t49 -33t67 -6q8 0 22 1h22q14 0 40.5 8
t41.5 8q14 0 14 -6zM183 242q0 8 -17 20t-26 12q-11 0 -30.5 -11t-19.5 -20q0 -20 39 -20q11 0 30 5q24 6 24 14z" />
    <glyph glyph-name="fraction" unicode="&#x2044;" horiz-adv-x="275" 
d="M331 592q0 -41 -52 -76q-13 -56 -93 -221q-75 -155 -117 -220q-10 -14 -29 -41q-8 -13 -34.5 -92t-26.5 -90q0 -9 9.5 -22.5t9.5 -24.5q0 -13 -29 -13q-39 0 -39 43q0 95 59 211q54 97 107 195q40 83 53 111q28 62 47 115l26 96q23 75 44 75q22 0 43.5 -13t21.5 -33z" />
    <glyph glyph-name="fi" unicode="&#xf001;" horiz-adv-x="425" 
d="M383 457q0 -14 -8.5 -27t-21.5 -13q-52 0 -52 42q0 8 8 19t8 16q0 13 -7.5 25t-14.5 12q-39 0 -81 -20q-60 -29 -60 -83q0 -33 20 -97q29 -93 30 -99q1 0 81 17l20 26q13 17 24 17q37 0 37 -62q0 -29 -11.5 -85t-11.5 -84q0 -7 4 -20t4 -20q0 -30 -20 -42
q-17 4 -35.5 9.5t-24.5 20.5q2 49 14 101q12 48 12 58v21q-42 -21 -98 -23q-13 -37 -25 -73q-15 -45 -15 -73q0 -12 -17 -32t-19 -32q-7 -7 -30 -7q-22 0 -22 32q0 26 24 89q31 82 33 91q-11 5 -31 5q-10 0 -29 -3t-29 -3q-24 0 -36 18q0 46 36 46h28q19 -1 29 -1
q22 0 41 11q-10 12 -26 102q-16 86 -16 112q0 31 4 44q13 37 93 65q67 24 118 24q23 0 49 -52q24 -47 24 -72z" />
    <glyph glyph-name="fl" unicode="&#xf002;" 
d="M440 500q0 -14 -16.5 -25.5t-20.5 -26.5q-55 -190 -65 -338q-2 -24 11 -68t13 -66q0 -17 -19 -17q-15 0 -33 35q-9 17 -20 22q-5 25 -5 52q0 55 7 114q-30 -9 -93 -16q-13 -37 -25 -73q-15 -45 -15 -73q0 -12 -17 -32t-19 -32q-7 -7 -30 -7q-22 0 -22 32q0 26 24 89
q31 82 33 91q-11 5 -31 5q-10 0 -29 -3t-29 -3q-24 0 -36 18q0 46 36 46h28q19 -1 29 -1q22 0 41 11q-10 12 -26 102q-16 86 -16 112q0 31 4 44q13 37 93 65q67 24 118 24q10 0 20 -2q16 -21 16 -32t-33 -16q-75 -11 -103 -24q-56 -24 -56 -79q0 -33 20 -97q29 -93 30 -99
q35 0 93 -3q4 26 9 54q11 79 41 234q5 23 29 23q20 0 40 -9q24 -11 24 -31z" />
    <glyph glyph-name="apple" unicode="&#xf000;" horiz-adv-x="1125" 
d="M1088 1h-282v191l-141 -191h-209l-136 191v-191h-283v644h359l165 -194l164 194h363v-644zM1069 20v606h-335l-173 -205l-174 205h-331v-606h244v233l166 -233h189l171 232v-232h243zM1063 367q0 -7 -13.5 -16.5t-21.5 -9.5q-2 0 -17.5 4t-25.5 4q-36 0 -36 -8
q0 -3 38 -16.5t38 -30.5q0 -27 -42 -45q-33 -15 -64 -15q-57 0 -57 30q0 5 18 14.5t24 9.5q14 0 14 -12q0 -19 39 -20q23 0 23 12q0 9 -36 20.5t-36 28.5q0 8 9 20q32 41 126 41q20 0 20 -11zM916 375q-12 -10 -38 -25q-10 0 -30 -4q-10 -14 -25 -86q-5 -23 -34 -23
q-36 0 -36 7q0 15 14 47q13 29 25 57q-5 2 -16 0q-16 -3 -17 -3q-5 0 -5 4t10 14t15 10q2 0 23 5l26 60q17 31 56 31q11 0 14 -5q-13 -17 -23 -42l-16 -42q27 -5 55 4q3 -1 5 -2q0 -3 -3 -7zM718 337q-1 -9 -7.5 -31t-6.5 -33t6 -20l6 -9q0 -5 -22 -5h-35q-13 4 -13 26
q0 11 7.5 33.5t7.5 28.5q-9 0 -41 -35q-28 -31 -41 -50q-2 -3 -19 -2q-28 0 -28 14q0 1 17.5 46t17.5 47q0 5 -6 5l-15 -3q-8 -2 -8 3q3 7 22 17t29 10q34 0 34 -20q0 -8 -8.5 -27t-8.5 -28q3 2 35 32q26 24 36 24q14 -3 29.5 -7t11.5 -16zM515 347q0 -39 -52.5 -75.5
t-103.5 -36.5q-44 0 -45 31q0 25 38 58q33 28 62 38q33 12 36 12q2 0 2 -2t-1 -3q-73 -52 -73 -99q0 -12 18 -12q15 0 40 23t25 40t-17 17h-18q15 20 51 31q38 0 38 -22zM447 547q0 -12 -33 -37t-39 -25q-7 0 -7 3q0 2 3 8t3 9q0 13 -36 13q3 0 -69 -8q-20 -56 -52 -139
q66 10 149 21q1 -1 9 -4q5 -1 4 -6q-12 -12 -68 -43q-5 -1 -6.5 4.5l-1.5 5.5q-10 2 -50.5 -2.5t-46.5 -7.5q-20 -60 -40 -121q-28 -83 -50 -121q-2 -4 -8 -6t-11 -1q-5 0 -5 4q9 99 55 239q-28 -6 -77 -20q-8 0 -8 10q16 12 43 21l46 14q15 51 40 140q-9 1 -31 -4.5
t-29 -8.5q-1 -4 5.5 -9t6.5 -8q0 -6 -13.5 -10.5t-21.5 -4.5q-20 0 -20 15q0 26 88 52q142 41 234 41q37 0 37 -14z" />
    <glyph glyph-name="dotlessi" unicode="&#x131;" horiz-adv-x="165" 
d="M106 230q0 -29 -11.5 -85t-11.5 -84q0 -7 4 -20t4 -20q0 -30 -20 -42q-17 4 -35.5 9.5t-24.5 20.5q2 49 14 101q12 48 12 58q0 60 -13 80l20 26q14 18 25 18q37 0 37 -62z" />
    <glyph glyph-name="dotaccent" unicode="&#x2d9;" horiz-adv-x="250" 
d="M166 425q0 -10 -12.5 -21.5t-20.5 -11.5q-20 0 -34.5 19t-14.5 39q0 12 11.5 20t24.5 8q11 0 27 -14q19 -17 19 -39z" />
    <glyph glyph-name="ring" unicode="&#x2da;" horiz-adv-x="300" 
d="M281 440q0 -54 -103 -54q-53 0 -97 14q-62 19 -62 59q0 43 31 64l66 36q54 -14 101 -41q64 -37 64 -78zM201 460q0 22 -21 22q-10 0 -32 13t-37 13q-40 0 -40 -40q0 -14 32 -27q27 -12 44 -12q54 0 54 31z" />
    <glyph glyph-name="caron" unicode="&#x2c7;" horiz-adv-x="372" 
d="M291 549q-18 -89 -109 -141q-8 0 -24 -3t-24 -3q-26 0 -37 22q-27 53 -27 82q0 19 11 35q4 0 10 4t10 4q18 0 24 -12q0 -14 8.5 -30t15.5 -30q38 0 49 28q7 19 25 30.5t36 21.5q10 4 17 4q12 0 15 -12z" />
    </font>
</defs>
</svg>
